<svg width="11" height="11" viewBox="0 0 11 11" fill="none" xmlns="http://www.w3.org/2000/svg">
<path d="M6.37769 5.73607C6.34453 5.64252 6.34897 5.54303 6.38297 5.4481C6.31173 5.49337 6.23599 5.54315 6.14009 5.53841C6.13626 5.53823 6.13206 5.53793 6.1272 5.53721C5.98393 5.51628 5.88702 5.40264 5.80474 5.29391C5.58813 5.00774 5.59899 4.95688 5.49944 4.88786C5.38783 4.8105 5.26315 4.7973 5.1792 4.79736C5.06765 4.79826 4.92888 4.82159 4.82549 4.91658C4.57452 5.14705 4.69218 5.6481 4.84726 5.91034C4.88289 5.97055 5.17746 6.45007 5.75641 6.52186C6.18129 6.57457 6.60798 6.38842 6.88306 6.04144C6.64774 6.03904 6.44522 5.92642 6.37769 5.73607Z" fill="#A02020"/>
<path d="M7.37096 5.405C7.46428 5.6681 7.31372 5.96157 7.03474 6.06052C6.7557 6.15949 6.45387 6.02647 6.36055 5.76337C6.26722 5.50021 6.41778 5.20673 6.69676 5.10778C6.9758 5.00881 7.27765 5.1419 7.37096 5.405Z" fill="#4C2626"/>
<path d="M6.32703 5.19289C6.39114 5.2107 6.44505 5.25975 6.46604 5.32806C6.61782 5.82137 6.89171 6.01693 6.90328 6.02503C6.99401 6.08836 7.01764 6.21351 6.95527 6.30491C6.89284 6.3963 6.76925 6.42089 6.67725 6.3593C6.661 6.34839 6.27683 6.08548 6.08037 5.44668C6.04763 5.34017 6.10742 5.22731 6.21393 5.19451C6.25213 5.18275 6.29117 5.18293 6.32703 5.19289Z" fill="white"/>
<path d="M1.539 5.65474C1.539 5.65474 1.97503 5.3503 1.6982 4.96296C1.6982 4.96296 1.03146 4.41445 0.380441 5.38812C0.31773 5.48199 0.279679 5.57059 0.261134 5.65438C0.972743 5.07551 1.539 5.65474 1.539 5.65474Z" fill="#A02020"/>
<path d="M1.77892 8.04199C1.90959 8.90946 2.04021 9.7747 2.04021 9.7747C2.04021 9.7747 1.58923 9.79617 1.48279 10.0649H2.89034C2.99055 9.93284 3.02173 9.7428 3.05676 9.53014C3.12464 9.11755 3.20074 8.6658 3.30767 8.04199H1.77892Z" fill="#C93D3D"/>
<path d="M1.87901 8.70117C1.9689 9.29757 2.04027 9.76983 2.04027 9.76983C2.04027 9.76983 1.58923 9.79136 1.48279 10.06H2.89034C2.99061 9.92798 3.02173 9.73799 3.05676 9.52528C3.09796 9.27496 3.14221 9.00996 3.19451 8.70117H1.87901Z" fill="#210E0E"/>
<path d="M4.91584 8.04199C4.78516 8.90946 4.65455 9.7747 4.65455 9.7747C4.65455 9.7747 5.10552 9.79617 5.21197 10.0649H3.80442C3.70421 9.93284 3.67302 9.7428 3.638 9.53014C3.57011 9.11755 3.49401 8.6658 3.38708 8.04199H4.91584Z" fill="#C93D3D"/>
<path d="M4.81611 8.70117C4.72615 9.29757 4.65485 9.76983 4.65485 9.76983C4.65485 9.76983 5.10582 9.79136 5.21233 10.06H3.80478C3.70451 9.92798 3.67338 9.73799 3.63836 9.52528C3.59716 9.27496 3.5529 9.00996 3.50061 8.70117H4.81611Z" fill="#210E0E"/>
<path d="M4.92037 4.72412C5.04055 5.03087 5.15959 5.34289 5.27713 5.66007C5.50346 6.27068 5.71317 6.8705 5.90777 7.45833C5.90777 7.45833 3.5816 8.20903 0.860229 7.62894C0.860229 7.62894 0.993843 5.40328 1.8811 4.89522L4.92037 4.72412Z" fill="#C93D3D"/>
<path d="M2.107 4.88861L2.11186 4.88525L1.8811 4.89821C0.993842 5.40627 0.860229 7.63193 0.860229 7.63193C1.89315 7.85214 2.86874 7.88039 3.68223 7.83097C1.56296 7.5803 2.107 4.88861 2.107 4.88861Z" fill="#A02020"/>
<path d="M2.83296 8.34105C1.48573 8.34105 0.745646 8.05746 0.696951 8.03815C0.472483 7.94915 0.362679 7.69506 0.451674 7.47065C0.540429 7.2469 0.793502 7.13716 1.01731 7.22465C1.04765 7.23611 2.76075 7.86375 5.79079 7.03935C6.02389 6.97602 6.26401 7.11347 6.3274 7.34639C6.39079 7.57932 6.25334 7.81962 6.02036 7.88294C4.73778 8.23191 3.66858 8.34105 2.83296 8.34105Z" fill="white"/>
<path d="M5.46861 5.92329C5.42015 5.92185 5.3708 5.93061 5.32438 5.95387C3.47617 6.88011 1.22652 5.93558 1.20403 5.92593C1.17206 5.9122 1.13908 5.90572 1.10628 5.90332L0.907837 6.44935C0.925288 6.46188 0.944059 6.47297 0.964629 6.48185C1.02838 6.50938 1.99725 6.91843 3.22807 6.96563C3.96906 6.99399 4.8051 6.8912 5.59562 6.49498C5.63628 6.47459 5.66968 6.44581 5.69625 6.41234L5.46861 5.92329Z" fill="#210E0E"/>
<path d="M3.73283 6.79706C3.73115 6.92083 3.6295 7.01984 3.50572 7.01816L3.22974 7.01445C3.10596 7.01277 3.00701 6.91112 3.00869 6.78734L3.01235 6.51136C3.01403 6.38764 3.11568 6.28863 3.23946 6.29025L3.51544 6.29397C3.63922 6.29565 3.73817 6.39736 3.73655 6.52107L3.73283 6.79706ZM3.63868 6.17397L3.11946 6.16701C2.99574 6.16539 2.89403 6.26434 2.89235 6.38812L2.8854 6.90734C2.88378 7.03112 2.98273 7.13277 3.1065 7.13445L3.62572 7.1414C3.7495 7.14308 3.85115 7.04407 3.85283 6.92029L3.85979 6.40107C3.86147 6.27736 3.76245 6.17565 3.63868 6.17397Z" fill="#EA7A15"/>
<path d="M5.13149 3.23475C5.12219 3.16626 5.10276 3.08524 5.10174 3.03732C5.09473 2.72176 4.93431 2.50017 4.89245 2.44764C4.56405 2.06245 4.02684 1.81076 3.41905 1.80914V1.80908C3.40676 1.80914 3.3947 1.80992 3.38253 1.81016C3.37029 1.80992 3.35824 1.80914 3.34601 1.80908V1.80914C2.73815 1.81076 2.201 2.06245 1.87255 2.44764C1.83075 2.50017 1.67027 2.72176 1.66331 3.03732C1.66223 3.08524 1.6428 3.16626 1.63357 3.23475C1.60778 3.42485 1.59381 3.51978 1.59669 3.58689C1.60436 3.76224 1.65965 3.89004 1.67669 3.92716C1.71866 4.01897 1.76916 4.08746 1.80754 4.13273C1.90241 4.25975 2.06277 4.4396 2.30979 4.58934C2.73851 4.84919 3.16466 4.85843 3.34601 4.85183V4.85177C3.35818 4.85201 3.37029 4.85123 3.38253 4.85123C3.3947 4.85123 3.40682 4.85201 3.41905 4.85177V4.85183C3.6004 4.85843 4.02654 4.84919 4.45527 4.58934C4.70223 4.4396 4.86264 4.25975 4.95752 4.13273C4.99584 4.08746 5.04639 4.01897 5.08837 3.92716C5.10534 3.89004 5.16069 3.76224 5.16831 3.58689C5.17125 3.51978 5.15722 3.42485 5.13149 3.23475Z" fill="#EAAAA0"/>
<path d="M2.65833 3.68867C2.65833 3.94906 2.44723 4.16016 2.1869 4.16016C1.92651 4.16016 1.71542 3.94906 1.71542 3.68867C1.71542 3.42828 1.92651 3.21725 2.1869 3.21725C2.44723 3.21725 2.65833 3.42828 2.65833 3.68867Z" fill="#EA9292"/>
<path d="M4.09753 3.69408C4.09753 3.95447 4.30863 4.16556 4.56902 4.16556C4.82935 4.16556 5.04044 3.95447 5.04044 3.69408C5.04044 3.43369 4.82935 3.22266 4.56902 3.22266C4.30863 3.22266 4.09753 3.43369 4.09753 3.69408Z" fill="#EA9292"/>
<path d="M2.18914 3.14889C2.17439 3.14889 2.15945 3.14464 2.14632 3.1357C2.11154 3.11207 2.10218 3.06512 2.12551 3.03009C2.13343 3.01816 2.32497 2.7396 2.72587 2.85516C2.76647 2.86686 2.78992 2.90931 2.77822 2.94997C2.76647 2.99057 2.72401 3.01384 2.68341 3.00227C2.3931 2.91837 2.2581 3.10764 2.25253 3.11567C2.23765 3.1372 2.21361 3.14889 2.18914 3.14889Z" fill="#FCF7F7"/>
<path d="M4.56511 3.15621C4.57987 3.15621 4.5948 3.15196 4.60793 3.14302C4.64271 3.11939 4.65207 3.07244 4.62874 3.03741C4.62083 3.02554 4.42928 2.74692 4.02838 2.86248C3.98778 2.87418 3.96434 2.91663 3.97603 2.95729C3.98778 2.99789 4.03024 3.02116 4.07084 3.00965C4.36116 2.92575 4.49615 3.11496 4.50173 3.12299C4.5166 3.14458 4.54065 3.15621 4.56511 3.15621Z" fill="#FCF7F7"/>
<path d="M5.58649 3.58092C5.50931 3.47897 5.42535 3.41156 5.36556 3.37042L5.19764 2.44629L4.94937 2.6286L5.05714 3.15423L5.12016 3.39189C5.09252 3.74122 4.92874 4.25348 4.18008 4.08754L3.42068 3.66116L3.37966 3.65666V3.64785L3.3381 3.6524L2.57876 4.07879C1.62974 4.28916 1.62026 3.40994 1.63693 3.15423L1.7447 2.6286L1.49642 2.44629L1.30284 3.51165L1.30332 3.51183C1.2608 3.56988 1.20593 3.65396 1.1567 3.76233C1.09721 3.89324 1.01331 4.07771 1.03112 4.29246C1.05361 4.56317 1.2283 4.77102 1.37714 4.90152C1.35304 4.94565 1.3381 4.99555 1.3381 5.0494C1.3381 5.22079 1.47705 5.3598 1.64851 5.3598C1.67771 5.3598 1.70542 5.35447 1.73223 5.34691C1.73672 5.36706 1.74212 5.38751 1.74968 5.40862C1.8322 5.63848 2.04869 5.72412 2.08653 5.73911C2.3871 5.85797 2.66368 5.67848 2.6909 5.66019C2.69798 5.66931 2.8593 5.87075 3.0954 5.82565C3.25672 5.79483 3.34769 5.66931 3.37918 5.6178V5.62577C3.41024 5.67687 3.5014 5.80346 3.66344 5.83441C3.89954 5.8795 4.06086 5.67806 4.06793 5.66889C4.10721 5.69204 4.40358 5.86007 4.70421 5.73054C4.75861 5.70715 4.92064 5.63735 5.00052 5.4575C5.00808 5.44034 5.01444 5.42337 5.01971 5.4067C5.02619 5.40712 5.03237 5.40862 5.03896 5.40862C5.21042 5.40862 5.34943 5.26967 5.34943 5.09822C5.34943 5.05132 5.33827 5.00736 5.31968 4.96748C5.49498 4.84592 5.70043 4.66074 5.76784 4.36922C5.86307 3.95741 5.61623 3.62026 5.58649 3.58092Z" fill="white"/>
<path d="M1.83867 4.85099C1.81432 4.85099 1.78877 4.84787 1.76227 4.84061C1.6605 4.81279 1.55189 4.72631 1.53894 4.59588C1.53012 4.50712 1.56856 4.38772 1.67393 4.33531C1.69444 4.32505 1.80173 4.27714 1.89264 4.34346C1.94367 4.38071 1.98643 4.45309 1.96682 4.53087C1.95063 4.59534 1.89834 4.64481 1.83363 4.65681C1.76502 4.66958 1.69654 4.63948 1.6587 4.58011C1.64736 4.56229 1.65258 4.53861 1.67039 4.52727C1.6882 4.51576 1.71183 4.5211 1.72328 4.53891C1.74391 4.57135 1.78278 4.58856 1.8196 4.58155C1.8599 4.57405 1.88526 4.54131 1.89258 4.51216C1.90505 4.46286 1.87009 4.42179 1.84754 4.40529C1.79135 4.36433 1.71639 4.39966 1.70805 4.40385C1.63843 4.43846 1.60862 4.52283 1.6151 4.58832C1.62445 4.68205 1.70841 4.74652 1.78248 4.76673C1.91669 4.80361 2.02547 4.69261 2.03747 4.67984C2.07813 4.63642 2.10211 4.58706 2.10877 4.53315C2.12448 4.40577 2.03111 4.3121 2.01222 4.29459C1.8936 4.18466 1.73336 4.21831 1.71549 4.22251C1.69504 4.22718 1.67429 4.21465 1.66943 4.19396C1.66463 4.17339 1.67741 4.15276 1.69798 4.14796C1.71999 4.14287 1.91675 4.10155 2.06427 4.23846C2.09756 4.26922 2.20454 4.38221 2.18475 4.54244C2.17882 4.5909 2.15813 4.6631 2.0933 4.73219C2.07225 4.75462 1.9739 4.85099 1.83867 4.85099Z" fill="#FCF7F7"/>
<path d="M4.14383 4.86108C4.16476 4.84866 4.18832 4.83829 4.21483 4.83097C4.31654 4.80297 4.45405 4.82192 4.53177 4.92746C4.58467 4.99931 4.61255 5.12165 4.54868 5.22048C4.53627 5.23973 4.4685 5.33568 4.35642 5.32506C4.29357 5.31913 4.21981 5.27871 4.19702 5.20177C4.17807 5.13808 4.19774 5.06881 4.24727 5.02545C4.29975 4.97952 4.37399 4.97046 4.43684 5.00219C4.45567 5.01172 4.46329 5.03475 4.45375 5.05358C4.44434 5.07253 4.42125 5.08003 4.40236 5.07055C4.36805 5.05322 4.32584 5.0582 4.29777 5.08303C4.26695 5.11001 4.26185 5.15115 4.27036 5.17994C4.28488 5.22875 4.33585 5.2462 4.36368 5.24884C4.43294 5.25544 4.47936 5.18677 4.48434 5.17892C4.52655 5.11361 4.5091 5.02587 4.47012 4.97286C4.41423 4.89706 4.30916 4.88441 4.23516 4.90485C4.10095 4.94168 4.06401 5.09262 4.06023 5.10971C4.0474 5.16782 4.05195 5.22252 4.07378 5.27229C4.1253 5.38983 4.25339 5.42269 4.27858 5.42809C4.43666 5.46209 4.55732 5.35139 4.57051 5.33868C4.58574 5.32422 4.60997 5.3244 4.62467 5.3397C4.63936 5.35493 4.63888 5.37922 4.62365 5.39385C4.60733 5.40944 4.45921 5.54539 4.26245 5.50299C4.21813 5.49346 4.06844 5.45094 4.00368 5.30299C3.98407 5.25838 3.96506 5.18569 3.98545 5.09316C3.9921 5.06318 4.02755 4.9301 4.14383 4.86108Z" fill="#FCF7F7"/>
<path d="M5.32714 4.39138C5.32354 4.41081 5.31724 4.43066 5.30753 4.45069C5.27023 4.52769 5.18513 4.60139 5.07928 4.59233C5.0072 4.58622 4.91773 4.53776 4.89164 4.44601C4.88654 4.42814 4.86429 4.33554 4.93068 4.27294C4.96792 4.23779 5.03197 4.21446 5.09104 4.24163C5.14003 4.26418 5.1717 4.31318 5.17164 4.36655C5.17158 4.4231 5.13746 4.47317 5.0845 4.49452C5.06861 4.50094 5.05056 4.49326 5.04414 4.47737C5.03761 4.46148 5.04534 4.44343 5.06129 4.43695C5.0902 4.42532 5.10969 4.39689 5.10957 4.36655C5.10957 4.33333 5.08726 4.3082 5.06513 4.29806C5.02765 4.28079 4.98975 4.3025 4.97326 4.31809C4.93224 4.35677 4.94927 4.42178 4.95137 4.42904C4.96858 4.48967 5.03143 4.52595 5.08456 4.53051C5.16066 4.53698 5.22453 4.47965 5.25164 4.42364C5.30093 4.32217 5.22867 4.21896 5.22027 4.20751C5.19173 4.16865 5.15593 4.14214 5.11395 4.12883C5.01476 4.0974 4.92624 4.15791 4.90951 4.17039C4.80426 4.24853 4.80726 4.3813 4.80792 4.39617C4.80864 4.41314 4.79551 4.42784 4.77836 4.42862C4.7612 4.4294 4.74669 4.41614 4.74591 4.39905C4.74513 4.38076 4.74141 4.21776 4.87245 4.12055C4.90195 4.0986 5.00792 4.03012 5.13266 4.0697C5.17038 4.08163 5.22483 4.10886 5.27029 4.17075C5.28504 4.1909 5.34723 4.28361 5.32714 4.39138Z" fill="#FCF7F7"/>
<path d="M2.36931 5.24831C2.37291 5.26774 2.37921 5.28759 2.38892 5.30768C2.42623 5.38462 2.51132 5.45832 2.61717 5.44927C2.68925 5.44315 2.77873 5.3947 2.80482 5.30294C2.80991 5.28507 2.83216 5.19248 2.76577 5.12987C2.72853 5.09473 2.66449 5.0714 2.60542 5.09856C2.55642 5.12111 2.52476 5.17011 2.52482 5.22348C2.52488 5.28003 2.559 5.33017 2.61195 5.35146C2.62784 5.35787 2.64596 5.3502 2.65231 5.33431C2.65885 5.31841 2.65111 5.30036 2.63516 5.29395C2.60626 5.28225 2.58676 5.25389 2.58688 5.22348C2.58688 5.19026 2.60919 5.16513 2.63132 5.155C2.6688 5.13773 2.7067 5.15949 2.7232 5.17503C2.76422 5.21371 2.74718 5.27871 2.74509 5.28597C2.72787 5.3466 2.66503 5.38288 2.61189 5.38744C2.53579 5.39392 2.47192 5.33659 2.44482 5.28057C2.39552 5.1791 2.46778 5.0759 2.47618 5.06444C2.50473 5.02558 2.54053 4.99907 2.58251 4.98576C2.6817 4.95434 2.77021 5.01485 2.787 5.02732C2.89219 5.10546 2.88919 5.23823 2.88853 5.25311C2.88781 5.27008 2.90095 5.28477 2.9181 5.28555C2.93525 5.28633 2.94976 5.27308 2.95054 5.25599C2.95138 5.23769 2.95504 5.0747 2.82401 4.97749C2.7945 4.95554 2.68853 4.88705 2.5638 4.92663C2.52608 4.93857 2.47162 4.96579 2.42617 5.02768C2.41141 5.04783 2.34922 5.14054 2.36931 5.24831Z" fill="#FCF7F7"/>
<path d="M3.20877 4.88536C3.19467 4.87151 3.18172 4.8552 3.1705 4.83595C3.12751 4.76201 3.11389 4.65028 3.18058 4.56746C3.22592 4.51115 3.31605 4.46402 3.40673 4.49364C3.42442 4.4994 3.51365 4.53268 3.52852 4.6227C3.53686 4.67325 3.52043 4.7394 3.46484 4.77322C3.41878 4.80123 3.36049 4.80009 3.31623 4.77028C3.26939 4.73862 3.24691 4.68231 3.25878 4.62653C3.26232 4.60974 3.27881 4.59901 3.29554 4.60261C3.31239 4.60608 3.32301 4.62258 3.31947 4.63937C3.31299 4.66989 3.32565 4.70192 3.35095 4.71877C3.37848 4.73736 3.41176 4.73286 3.43257 4.72021C3.46778 4.69874 3.47095 4.6552 3.4673 4.63283C3.45812 4.57718 3.39467 4.55499 3.38748 4.55271C3.32757 4.5331 3.26238 4.56489 3.22892 4.60644C3.181 4.66593 3.19287 4.75091 3.22418 4.80476C3.28079 4.90234 3.40679 4.9 3.42094 4.89946C3.46915 4.89748 3.51107 4.88261 3.54562 4.8552C3.62712 4.79055 3.6264 4.68333 3.62538 4.66246C3.61938 4.53148 3.5076 4.45982 3.49488 4.45208C3.48043 4.44315 3.47557 4.42408 3.48451 4.40944C3.49344 4.39481 3.51251 4.39013 3.52715 4.39907C3.54274 4.4086 3.68001 4.49658 3.68738 4.65958C3.68912 4.69634 3.68673 4.82246 3.58418 4.90384C3.55323 4.92842 3.50022 4.95835 3.42346 4.96147C3.39857 4.96249 3.28691 4.96225 3.20877 4.88536Z" fill="#FCF7F7"/>
<path d="M3.94803 4.28194C3.68669 4.18443 3.72393 3.97568 3.72585 3.96602C3.73082 3.94137 3.71547 3.9172 3.6904 3.91211C3.6657 3.90695 3.64147 3.92278 3.63631 3.94749C3.63601 3.94881 3.62462 4.00926 3.64297 4.08656C3.58594 4.11654 3.43325 4.17903 3.29964 4.07546C3.27973 4.05999 3.251 4.06359 3.23553 4.08356C3.22006 4.10353 3.22372 4.13226 3.24369 4.14773C3.31799 4.2053 3.39571 4.22449 3.46618 4.22449C3.55463 4.22449 3.63091 4.19451 3.67541 4.17238C3.71385 4.2447 3.78498 4.31864 3.91607 4.36758C3.91745 4.36812 3.91877 4.36854 3.92015 4.3689C3.9427 4.37501 3.96657 4.36302 3.9749 4.34071C3.98372 4.31708 3.97166 4.29076 3.94803 4.28194Z" fill="#CC4C4C"/>
<path d="M3.25664 3.54619C3.25664 3.54619 3.08908 3.355 2.7707 3.65599C2.45238 3.95698 2.20789 3.85551 2.20789 3.85551C2.3779 4.0747 2.6567 4.17263 2.91121 4.10415C3.23235 4.01779 3.34905 3.71122 3.35955 3.68202C3.35955 3.68202 3.33868 3.62613 3.25664 3.54619Z" fill="white"/>
<path d="M2.86985 3.98713C2.6476 4.03936 2.40958 3.99421 2.22253 3.87295C2.39375 4.07816 2.66235 4.1692 2.90913 4.10281C3.23027 4.01646 3.34697 3.70989 3.35746 3.68068C3.35746 3.68068 3.35261 3.66827 3.33959 3.64746C3.27459 3.75253 3.13192 3.9256 2.86985 3.98713Z" fill="#F4EDED"/>
<path d="M3.59259 3.53886C3.59259 3.53886 3.76015 3.34768 4.07853 3.64867C4.39685 3.94966 4.64135 3.84819 4.64135 3.84819C4.47133 4.06738 4.19253 4.16531 3.93802 4.09682C3.61688 4.01046 3.50018 3.7039 3.48962 3.67469C3.48962 3.67469 3.51055 3.6188 3.59259 3.53886Z" fill="white"/>
<path d="M3.97724 3.97987C4.19949 4.03204 4.43751 3.98694 4.62455 3.86568C4.45334 4.07084 4.18473 4.16193 3.93796 4.09555C3.61682 4.00919 3.50018 3.70257 3.48962 3.67342C3.48962 3.67342 3.49448 3.66101 3.5075 3.64014C3.5725 3.74526 3.71523 3.91834 3.97724 3.97987Z" fill="#F4EDED"/>
<path d="M3.65619 3.56639C3.65521 3.63949 3.5511 3.69729 3.42374 3.69564C3.29631 3.69388 3.19379 3.63325 3.19476 3.56021C3.19574 3.48712 3.29985 3.42931 3.42728 3.43096C3.55464 3.43272 3.65717 3.49329 3.65619 3.56639Z" fill="#D85B5B"/>
<path d="M3.36288 3.54083C3.36614 3.56332 3.34064 3.58561 3.30598 3.59063C3.27132 3.59564 3.24055 3.58149 3.23735 3.55899C3.2341 3.5365 3.2596 3.51426 3.29426 3.50919C3.32892 3.50417 3.35969 3.51832 3.36288 3.54083Z" fill="#EA9292"/>
<path d="M3.45194 3.51261C3.45051 3.52638 3.43819 3.53644 3.42435 3.53499C3.41051 3.53355 3.40047 3.52117 3.4019 3.50739C3.40335 3.49349 3.41572 3.48351 3.42956 3.48495C3.4434 3.48639 3.45339 3.49871 3.45194 3.51261Z" fill="#EA9292"/>
<path d="M0.871851 1.51994C0.822961 1.73625 0.607972 1.87193 0.391647 1.8231C0.175347 1.77415 0.0396169 1.55914 0.0885524 1.3429C0.137443 1.12659 0.352445 0.990861 0.568757 1.03975C0.785011 1.08863 0.920683 1.30362 0.871851 1.51994Z" fill="white"/>
<path d="M5.35133 1.79776C5.29436 1.55692 5.12782 1.00742 4.62671 0.566222C3.7042 -0.24595 2.48345 0.0447244 2.36231 0.0756689C2.36231 0.0756689 1.08213 1.21546 0.770349 1.29995C0.458506 1.38439 0.692568 1.64394 1.64441 1.39417C1.59505 1.49324 1.54576 1.59225 1.49646 1.69132C1.93472 1.83968 2.55032 1.99656 3.2982 2.03063C4.15985 2.06997 4.87037 1.93138 5.35133 1.79776Z" fill="#C93D3D"/>
<path d="M2.26799 0.498047C1.98643 0.704703 1.85636 0.902124 1.79009 1.04869C1.75411 1.12827 1.64316 1.40029 1.64532 1.39514C1.59603 1.49415 1.54673 1.59322 1.49744 1.69223C1.89336 1.82626 2.43435 1.96695 3.08646 2.01804C1.89054 1.63705 2.26799 0.498047 2.26799 0.498047Z" fill="#A02020"/>
<path d="M2.77561 0.167734C2.81333 0.000898118 2.41981 0.370073 2.40818 0.381047C2.37723 0.390702 2.33453 0.406114 2.28476 0.429563C2.31306 0.41571 2.53351 0.303686 2.50467 0.172412C2.47378 0.0322023 2.32884 0.407314 2.2817 0.431002C2.28182 0.430882 2.282 0.430822 2.282 0.430822C2.28326 0.432141 2.0387 0.637538 1.90227 0.807973C1.80872 0.924854 1.69945 1.10848 1.64392 1.39514C1.7211 1.19838 1.85591 0.929591 2.09399 0.668303C2.20092 0.550882 2.30887 0.456789 2.40758 0.382007C2.41285 0.381287 2.73765 0.33571 2.77561 0.167734Z" fill="#A02020"/>
<path d="M1.42688 2.95488C1.22646 2.9096 1.05068 2.77035 0.967207 2.56567C0.831435 2.2329 0.991195 1.85299 1.32403 1.71722C1.40811 1.68298 3.4072 0.888676 5.5594 1.85185C5.88743 1.99866 6.03436 2.38366 5.88749 2.71176C5.74069 3.0398 5.35592 3.1866 5.02759 3.03992C3.37782 2.30139 1.83113 2.91614 1.81566 2.92249C1.6875 2.97479 1.55233 2.98324 1.42688 2.95488Z" fill="white"/>
<path d="M2.43259 3.51228C2.42126 3.51228 2.4098 3.5091 2.39967 3.50239C2.37202 3.48415 2.36435 3.44697 2.38258 3.41933C2.38911 3.40937 2.44944 3.32206 2.54672 3.31798C2.61022 3.31576 2.66923 3.34808 2.72201 3.41525C2.74246 3.44128 2.73796 3.479 2.71193 3.49945C2.68591 3.5199 2.64818 3.51546 2.62773 3.48937C2.60872 3.4652 2.58084 3.43624 2.55169 3.4378C2.51985 3.43912 2.48872 3.47618 2.48273 3.48529C2.47121 3.50281 2.45208 3.51228 2.43259 3.51228Z" fill="#210E0E"/>
<path d="M4.08054 3.5196C4.06921 3.5196 4.05775 3.51643 4.04762 3.50971C4.01997 3.49148 4.0123 3.4543 4.03053 3.42665C4.03706 3.4167 4.09739 3.32938 4.19466 3.3253C4.25817 3.32308 4.31718 3.35541 4.36996 3.42257C4.39047 3.4486 4.38591 3.48632 4.35988 3.50677C4.33385 3.52722 4.29613 3.52278 4.27568 3.4967C4.25667 3.47253 4.22879 3.44356 4.19964 3.44512C4.1678 3.44644 4.13667 3.4835 4.13068 3.49262C4.11916 3.51013 4.10003 3.5196 4.08054 3.5196Z" fill="#210E0E"/>
<path d="M1.55999 5.69085C1.52035 5.63898 1.32796 5.39874 0.97822 5.34315C0.613663 5.28522 0.347877 5.47082 0.298222 5.50698C0.273514 5.57031 0.26248 5.62944 0.260141 5.68366C0.235134 6.25625 1.16107 6.66824 1.21804 6.69283C1.21876 6.61229 1.23285 6.53061 1.26338 6.45103C1.36371 6.1895 1.60527 6.02434 1.86763 6.00767L1.55999 5.69085Z" fill="#C93D3D"/>
<path d="M2.33548 6.6874C2.23468 6.9501 1.91304 7.07103 1.61702 6.95744C1.32101 6.84385 1.16276 6.53879 1.26357 6.27608C1.36439 6.01333 1.68603 5.8924 1.98205 6.00599C2.27807 6.11958 2.43631 6.42464 2.33548 6.6874Z" fill="#4C2626"/>
<path d="M1.95246 5.83964C1.95833 5.90644 1.93117 5.97475 1.87408 6.01871C1.4622 6.33661 1.37459 6.6644 1.37105 6.67814C1.3434 6.78626 1.23366 6.85289 1.12529 6.82632C1.01693 6.79976 0.949941 6.69181 0.975548 6.5832C0.980046 6.56401 1.09219 6.1083 1.62556 5.69667C1.7145 5.62806 1.84223 5.6445 1.91084 5.73343C1.93549 5.76534 1.94916 5.80228 1.95246 5.83964Z" fill="white"/>
<path d="M6.53479 4.6068C6.55709 4.62437 6.58492 4.63529 6.61556 4.63529C6.68813 4.63529 6.7469 4.57646 6.7469 4.50389C6.7469 4.50047 6.74618 4.4973 6.74588 4.49394C6.76129 4.50029 6.77814 4.50389 6.79583 4.50389C6.86768 4.50389 6.92585 4.4462 6.92699 4.37472C6.94108 4.37358 6.95517 4.37256 6.96951 4.37256C7.25724 4.37256 7.49046 4.60578 7.49046 4.89352C7.49046 5.18119 7.25724 5.41442 6.96951 5.41442C6.68183 5.41442 6.44861 5.18119 6.44861 4.89352C6.44861 4.78755 6.48045 4.68908 6.53479 4.6068Z" fill="#C48D65"/>
<path d="M7.42566 4.64355C7.44017 4.69141 7.44815 4.74215 7.44815 4.79474C7.44815 5.08241 7.21493 5.3157 6.92719 5.3157C6.73037 5.3157 6.55916 5.20649 6.47058 5.04541C6.53535 5.25939 6.73391 5.41519 6.96905 5.41519C7.25673 5.41519 7.49001 5.18196 7.49001 4.89423C7.49001 4.80331 7.46662 4.71792 7.42566 4.64355Z" fill="#AA734F"/>
<path d="M7.13708 4.60677C7.13708 4.63093 7.1567 4.65054 7.18086 4.65054C7.20503 4.65054 7.22464 4.63093 7.22464 4.60677C7.22464 4.5826 7.20503 4.56299 7.18086 4.56299C7.1567 4.56299 7.13708 4.5826 7.13708 4.60677Z" fill="#4C2626"/>
<path d="M6.69397 5.11987C6.69397 5.1483 6.71706 5.17139 6.74548 5.17139C6.77391 5.17139 6.797 5.1483 6.797 5.11987C6.797 5.09145 6.77391 5.06836 6.74548 5.06836C6.71706 5.06836 6.69397 5.09145 6.69397 5.11987Z" fill="#4C2626"/>
<path d="M7.22498 4.93959C7.22498 4.96556 7.24603 4.98661 7.27199 4.98661C7.29796 4.98661 7.31901 4.96556 7.31901 4.93959C7.31901 4.91363 7.29796 4.89258 7.27199 4.89258C7.24603 4.89258 7.22498 4.91363 7.22498 4.93959Z" fill="#4C2626"/>
<path d="M6.62073 4.8562C6.62073 4.88463 6.64382 4.90772 6.67224 4.90772C6.70067 4.90772 6.72376 4.88463 6.72376 4.8562C6.72376 4.82778 6.70067 4.80469 6.67224 4.80469C6.64382 4.80469 6.62073 4.82778 6.62073 4.8562Z" fill="#4C2626"/>
<path d="M6.92834 4.90964C6.92834 4.93525 6.94909 4.95599 6.9747 4.95599C7.00031 4.95599 7.02106 4.93525 7.02106 4.90964C7.02106 4.88403 7.00031 4.86328 6.9747 4.86328C6.94909 4.86328 6.92834 4.88403 6.92834 4.90964Z" fill="#4C2626"/>
<path d="M7.00159 5.20939C7.00159 5.2347 7.0221 5.25521 7.0474 5.25521C7.07271 5.25521 7.09322 5.2347 7.09322 5.20939C7.09322 5.18408 7.07271 5.16357 7.0474 5.16357C7.0221 5.16357 7.00159 5.18408 7.00159 5.20939Z" fill="#4C2626"/>
<path d="M6.87708 4.6106C6.87708 4.63693 6.89842 4.65828 6.92475 4.65828C6.95102 4.65828 6.97237 4.63693 6.97237 4.6106C6.97237 4.58428 6.95102 4.56299 6.92475 4.56299C6.89842 4.56299 6.87708 4.58428 6.87708 4.6106Z" fill="#4C2626"/>
<path d="M10.0476 10.6669C10.0294 10.6609 9.94207 10.6303 9.89829 10.5396C9.874 10.4894 9.8737 10.4424 9.87544 10.4178C9.92198 10.2016 9.86854 10.0935 9.831 10.0422C9.71694 9.88644 9.45553 9.80254 9.2102 9.82125C8.91358 9.84386 8.78891 9.69309 8.73991 9.59678V9.50347C8.76174 9.4898 8.77469 9.47331 8.77469 9.45543C8.77469 9.44752 8.7714 9.44002 8.76672 9.43277C8.81589 9.41837 8.8466 9.39828 8.8466 9.37603C8.8466 9.35678 8.82279 9.33939 8.78483 9.32566C9.26171 8.95529 8.99514 8.72194 8.92444 8.67139C8.94531 8.65574 8.95712 8.6384 8.95712 8.62017C8.95712 8.59085 8.92696 8.56386 8.87682 8.54251C8.72558 8.39145 8.66537 7.85658 8.65296 7.72842C8.71149 7.71901 8.75233 7.6985 8.75233 7.67457C8.75233 7.65976 8.73613 7.64632 8.71029 7.63595C8.76048 7.57106 8.81068 7.50623 8.86093 7.44141H8.30285L8.45745 7.63427C8.42915 7.64482 8.41146 7.65898 8.41146 7.67457C8.41146 7.6985 8.4523 7.71901 8.51083 7.72842C8.49841 7.85658 8.4382 8.39145 8.28696 8.54245C8.23682 8.56386 8.20666 8.59079 8.20666 8.62017C8.20666 8.6384 8.21853 8.65574 8.23934 8.67139C8.16864 8.72194 7.90207 8.95529 8.37901 9.32566C8.34099 9.33939 8.31724 9.35678 8.31724 9.37603C8.31724 9.39828 8.34789 9.41837 8.39706 9.43277C8.39239 9.44002 8.38909 9.44752 8.38909 9.45543C8.38909 9.47331 8.40204 9.4898 8.42387 9.50347V9.59678C8.37488 9.69309 8.2502 9.84386 7.95359 9.82125C7.70825 9.80254 7.44684 9.88644 7.33278 10.0422C7.2953 10.0935 7.2418 10.2016 7.28834 10.4178C7.29008 10.4424 7.28978 10.4894 7.26549 10.5396C7.22171 10.6303 7.1344 10.6609 7.11617 10.6669C7.11617 10.6669 7.10957 10.6999 7.12936 10.7198C7.16516 10.7556 7.25914 10.7134 7.28037 10.7038C7.49973 10.6048 7.43941 10.2309 7.64162 10.1414C7.7374 10.099 7.78441 10.1681 8.01931 10.1866C8.16768 10.1983 8.29625 10.1823 8.3961 10.1611C8.39365 10.1673 8.39227 10.1736 8.39227 10.1801C8.39227 10.2331 8.47718 10.2761 8.58189 10.2761C8.6866 10.2761 8.77152 10.2331 8.77152 10.1801C8.77152 10.1736 8.77014 10.1673 8.76774 10.1611C8.86753 10.1823 8.9961 10.1983 9.14453 10.1866C9.37937 10.1681 9.42639 10.099 9.52216 10.1414C9.72438 10.2309 9.66405 10.6048 9.88342 10.7038C9.90465 10.7134 9.99862 10.7556 10.0344 10.7198C10.0542 10.6999 10.0476 10.6669 10.0476 10.6669Z" fill="#4C2626"/>
<path d="M8.58281 7.13727L6.66467 6.91406V7.16612C6.66467 7.16612 7.15739 7.51448 8.58281 7.51448C10.0082 7.51448 10.5009 7.16612 10.5009 7.16612V6.91406L8.58281 7.13727Z" fill="#4C2626"/>
<path d="M10.4989 6.91542C10.4989 7.1776 9.64013 7.39014 8.58077 7.39014C7.5214 7.39014 6.66263 7.1776 6.66263 6.91542C6.66263 6.65323 7.5214 6.44069 8.58077 6.44069C9.64013 6.44069 10.4989 6.65323 10.4989 6.91542Z" fill="#5B3434"/>
<path d="M8.71545 10.1171C8.71545 10.3059 8.6559 10.459 8.5825 10.459C8.5091 10.459 8.44955 10.3059 8.44955 10.1171C8.44955 9.92831 8.5091 9.77521 8.5825 9.77521C8.6559 9.77521 8.71545 9.92831 8.71545 10.1171Z" fill="#4C2626"/>
<path d="M10.3781 6.96336C10.3781 7.15052 9.68198 7.30225 8.82333 7.30225C7.96468 7.30225 7.26861 7.15052 7.26861 6.96336C7.26861 6.77619 7.96468 6.62447 8.82333 6.62447C9.68198 6.62447 10.3781 6.77619 10.3781 6.96336Z" fill="#4C2626"/>
<path d="M9.52112 6.80552C9.52112 7.01919 8.88148 7.19238 8.0924 7.19238C7.30331 7.19238 6.66367 7.01919 6.66367 6.80552C6.66367 6.59184 7.30331 6.41865 8.0924 6.41865C8.88148 6.41865 9.52112 6.59184 9.52112 6.80552Z" fill="white"/>
<path d="M8.11749 6.58C7.46453 6.58 7.02591 6.69112 7.02591 6.79487C7.02591 6.89868 7.46453 7.00974 8.11749 7.00974C8.7705 7.00974 9.20912 6.89868 9.20912 6.79487C9.20912 6.69112 8.7705 6.58 8.11749 6.58ZM8.11749 7.04188C7.55995 7.04188 6.98328 6.94947 6.98328 6.79487C6.98328 6.64027 7.55995 6.54785 8.11749 6.54785C8.67509 6.54785 9.25176 6.64027 9.25176 6.79487C9.25176 6.94947 8.67509 7.04188 8.11749 7.04188Z" fill="#EAD9CE"/>
<path d="M8.10022 6.64588C8.10022 6.794 7.84265 6.91406 7.52487 6.91406C7.20709 6.91406 6.94952 6.794 6.94952 6.64588C6.94952 6.49775 7.20709 6.37769 7.52487 6.37769C7.84265 6.37769 8.10022 6.49775 8.10022 6.64588Z" fill="#C48D65"/>
<path d="M7.57029 6.84679C7.25257 6.84679 6.99493 6.72673 6.99493 6.57861C6.99493 6.56565 6.99763 6.553 7.00141 6.54053C6.96891 6.57411 6.95032 6.61129 6.95032 6.65057C6.95032 6.7987 7.20795 6.91876 7.52567 6.91876C7.81556 6.91876 8.05478 6.81873 8.09454 6.68865C8.00435 6.78185 7.80381 6.84679 7.57029 6.84679Z" fill="#AA734F"/>
<path d="M7.25427 6.5112C7.25427 6.52739 7.23658 6.54053 7.21481 6.54053C7.19304 6.54053 7.17535 6.52739 7.17535 6.5112C7.17535 6.49501 7.19304 6.48188 7.21481 6.48188C7.23658 6.48188 7.25427 6.49501 7.25427 6.5112Z" fill="#5B3434"/>
<path d="M7.1261 6.64274C7.1261 6.65911 7.10313 6.67236 7.07482 6.67236C7.04646 6.67236 7.02355 6.65911 7.02355 6.64274C7.02355 6.62637 7.04646 6.61317 7.07482 6.61317C7.10313 6.61317 7.1261 6.62637 7.1261 6.64274Z" fill="#5B3434"/>
<path d="M7.41907 6.75356C7.41907 6.76939 7.3961 6.78223 7.36779 6.78223C7.33943 6.78223 7.31652 6.76939 7.31652 6.75356C7.31652 6.73779 7.33943 6.72496 7.36779 6.72496C7.3961 6.72496 7.41907 6.73779 7.41907 6.75356Z" fill="#5B3434"/>
<path d="M7.62415 6.45627C7.62415 6.47042 7.60645 6.48193 7.58469 6.48193C7.56292 6.48193 7.54523 6.47042 7.54523 6.45627C7.54523 6.44211 7.56292 6.4306 7.58469 6.4306C7.60645 6.4306 7.62415 6.44211 7.62415 6.45627Z" fill="#5B3434"/>
<path d="M7.93909 6.67305C7.93909 6.68883 7.91852 6.70166 7.89309 6.70166C7.86766 6.70166 7.84709 6.68883 7.84709 6.67305C7.84709 6.65716 7.86766 6.64439 7.89309 6.64439C7.91852 6.64439 7.93909 6.65716 7.93909 6.67305Z" fill="#5B3434"/>
<path d="M7.89514 6.53035C7.89514 6.54408 7.87517 6.55518 7.85052 6.55518C7.82588 6.55518 7.80591 6.54408 7.80591 6.53035C7.80591 6.51668 7.82588 6.50552 7.85052 6.50552C7.87517 6.50552 7.89514 6.51668 7.89514 6.53035Z" fill="#5B3434"/>
<path d="M7.52527 6.5842C7.52527 6.60052 7.49966 6.61377 7.46806 6.61377C7.43645 6.61377 7.41085 6.60052 7.41085 6.5842C7.41085 6.56789 7.43645 6.55464 7.46806 6.55464C7.49966 6.55464 7.52527 6.56789 7.52527 6.5842Z" fill="#5B3434"/>
<path d="M7.69006 6.75356C7.69006 6.76939 7.66632 6.78223 7.63705 6.78223C7.60772 6.78223 7.58404 6.76939 7.58404 6.75356C7.58404 6.73779 7.60772 6.72496 7.63705 6.72496C7.66632 6.72496 7.69006 6.73779 7.69006 6.75356Z" fill="#5B3434"/>
<path d="M9.23939 6.70015C9.26156 6.84661 9.02479 7.00377 8.71051 7.05121C8.39635 7.09864 8.12375 7.01837 8.1017 6.8719C8.07953 6.72544 8.31629 6.56828 8.63051 6.52084C8.94467 6.47342 9.21728 6.55369 9.23939 6.70015Z" fill="#C48D65"/>
<path d="M8.7439 6.97288C8.42972 7.02032 8.1571 6.94002 8.13497 6.79357C8.13305 6.78074 8.13377 6.76785 8.13569 6.75495C8.10852 6.79303 8.09575 6.83255 8.10163 6.87141C8.12375 7.01786 8.39632 7.09816 8.7105 7.05072C8.99722 7.00743 9.21874 6.87279 9.23865 6.73828C9.16339 6.84389 8.97479 6.93804 8.7439 6.97288Z" fill="#AA734F"/>
<path d="M8.3815 6.68737C8.38392 6.70338 8.36844 6.71899 8.34684 6.72219C8.32533 6.72549 8.30594 6.71513 8.30352 6.69912C8.30112 6.68317 8.31659 6.66749 8.33818 6.6643C8.35971 6.66106 8.37915 6.67135 8.3815 6.68737Z" fill="#5B3434"/>
<path d="M8.27525 6.84082C8.2777 6.85707 8.25695 6.87354 8.2289 6.87777C8.20091 6.88199 8.17623 6.87236 8.17373 6.85612C8.17135 6.83998 8.19203 6.82347 8.22008 6.81924C8.24813 6.81501 8.27275 6.82464 8.27525 6.84082Z" fill="#5B3434"/>
<path d="M8.58301 6.90775C8.58537 6.92335 8.56463 6.93945 8.53652 6.94369C8.50853 6.94791 8.48397 6.9387 8.48161 6.92304C8.4792 6.90745 8.50001 6.8914 8.52805 6.88711C8.55604 6.88289 8.58066 6.89215 8.58301 6.90775Z" fill="#5B3434"/>
<path d="M8.74094 6.5738C8.74304 6.58779 8.72732 6.60175 8.70573 6.605C8.6842 6.60824 8.665 6.59955 8.6629 6.58556C8.66079 6.57156 8.67652 6.55761 8.69809 6.5543C8.71962 6.55105 8.73882 6.55975 8.74094 6.5738Z" fill="#5B3434"/>
<path d="M9.08472 6.74662C9.08701 6.76222 9.0686 6.77804 9.04351 6.78177C9.01843 6.78556 8.99618 6.776 8.99375 6.76036C8.99146 6.74475 9.00989 6.72905 9.03497 6.72526C9.06011 6.7214 9.08237 6.73108 9.08472 6.74662Z" fill="#5B3434"/>
<path d="M9.01937 6.61852C9.02142 6.6321 9.00327 6.64606 8.97895 6.64972C8.95458 6.6534 8.93318 6.64541 8.93113 6.63183C8.92909 6.61831 8.94724 6.60435 8.97155 6.60068C8.99592 6.59701 9.01733 6.605 9.01937 6.61852Z" fill="#5B3434"/>
<path d="M8.66343 6.7237C8.66593 6.73982 8.64253 6.75675 8.61128 6.76147C8.58003 6.76619 8.55273 6.75691 8.55029 6.74078C8.54786 6.72466 8.57119 6.70767 8.60245 6.70301C8.6337 6.69829 8.661 6.70757 8.66343 6.7237Z" fill="#5B3434"/>
<path d="M8.85034 6.8638C8.85269 6.87934 8.83119 6.89563 8.80219 6.9C8.77326 6.90437 8.74786 6.89522 8.74551 6.87963C8.74314 6.86397 8.76471 6.84774 8.79365 6.84337C8.82258 6.839 8.84805 6.8482 8.85034 6.8638Z" fill="#5B3434"/>
<path d="M7.60583 6.55969C7.60583 6.70781 7.86341 6.82787 8.18119 6.82787C8.49897 6.82787 8.75654 6.70781 8.75654 6.55969C8.75654 6.41156 8.49897 6.2915 8.18119 6.2915C7.86341 6.2915 7.60583 6.41156 7.60583 6.55969Z" fill="#C48D65"/>
<path d="M8.13375 6.75158C8.45147 6.75158 8.7091 6.63152 8.7091 6.48339C8.7091 6.47044 8.70641 6.45779 8.70263 6.44531C8.73513 6.4789 8.75372 6.51608 8.75372 6.55536C8.75372 6.70348 8.49609 6.82354 8.17837 6.82354C7.88848 6.82354 7.64926 6.72351 7.6095 6.59344C7.69969 6.68663 7.90023 6.75158 8.13375 6.75158Z" fill="#AA734F"/>
<path d="M8.45178 6.41604C8.45178 6.43224 8.46947 6.44537 8.49124 6.44537C8.51301 6.44537 8.5307 6.43224 8.5307 6.41604C8.5307 6.39985 8.51301 6.38672 8.49124 6.38672C8.46947 6.38672 8.45178 6.39985 8.45178 6.41604Z" fill="#5B3434"/>
<path d="M8.57996 6.55544C8.57996 6.57182 8.60292 6.58507 8.63123 6.58507C8.6596 6.58507 8.6825 6.57182 8.6825 6.55544C8.6825 6.53907 8.6596 6.52588 8.63123 6.52588C8.60292 6.52588 8.57996 6.53907 8.57996 6.55544Z" fill="#5B3434"/>
<path d="M8.28333 6.66435C8.28333 6.68024 8.30629 6.69301 8.3346 6.69301C8.36297 6.69301 8.38587 6.68024 8.38587 6.66435C8.38587 6.64858 8.36297 6.63574 8.3346 6.63574C8.30629 6.63574 8.28333 6.64858 8.28333 6.66435Z" fill="#5B3434"/>
<path d="M8.07825 6.36112C8.07825 6.37527 8.09594 6.38678 8.11771 6.38678C8.13948 6.38678 8.15717 6.37527 8.15717 6.36112C8.15717 6.34696 8.13948 6.33545 8.11771 6.33545C8.09594 6.33545 8.07825 6.34696 8.07825 6.36112Z" fill="#5B3434"/>
<path d="M7.76697 6.58384C7.76697 6.59961 7.78754 6.61245 7.81296 6.61245C7.83839 6.61245 7.85896 6.59961 7.85896 6.58384C7.85896 6.56795 7.83839 6.55518 7.81296 6.55518C7.78754 6.55518 7.76697 6.56795 7.76697 6.58384Z" fill="#5B3434"/>
<path d="M7.81091 6.44084C7.81091 6.45452 7.83088 6.46567 7.85553 6.46567C7.88018 6.46567 7.90015 6.45452 7.90015 6.44084C7.90015 6.42717 7.88018 6.41602 7.85553 6.41602C7.83088 6.41602 7.81091 6.42717 7.81091 6.44084Z" fill="#5B3434"/>
<path d="M8.18079 6.49685C8.18079 6.51316 8.20639 6.52642 8.238 6.52642C8.2696 6.52642 8.29521 6.51316 8.29521 6.49685C8.29521 6.48054 8.2696 6.46729 8.238 6.46729C8.20639 6.46729 8.18079 6.48054 8.18079 6.49685Z" fill="#5B3434"/>
<path d="M8.01599 6.66435C8.01599 6.68018 8.03974 6.69301 8.069 6.69301C8.09833 6.69301 8.12202 6.68018 8.12202 6.66435C8.12202 6.64858 8.09833 6.63574 8.069 6.63574C8.03974 6.63574 8.01599 6.64858 8.01599 6.66435Z" fill="#5B3434"/>
<path d="M9.60901 5.77881V6.90576H9.61087C9.62994 6.95788 9.7819 6.99872 9.96865 6.99872C10.1554 6.99872 10.3073 6.95788 10.3264 6.90576H10.3282V5.77881H9.60901Z" fill="#D8E6EF"/>
<path d="M9.68591 5.94727V6.8004C9.70852 6.85509 9.826 6.89689 9.96855 6.89689C10.1111 6.89689 10.2285 6.85509 10.2511 6.8004V5.94727H9.68591Z" fill="white"/>
<path d="M9.68591 5.94727C9.69911 5.98595 9.81983 6.01635 9.96855 6.01635C10.1173 6.01635 10.238 5.98595 10.2511 5.94727H9.68591Z" fill="#F2F5F7"/>
<path d="M9.60901 5.77881C9.62574 5.83608 9.77938 5.88112 9.96865 5.88112C10.1579 5.88112 10.3115 5.83608 10.3282 5.77881H9.60901Z" fill="#BFD6E2"/>
</svg>
