<svg width="15" height="11" viewBox="0 0 15 11" fill="none" xmlns="http://www.w3.org/2000/svg">
<path d="M6.59533 4.87062L4.944 5.60315C4.8517 5.65527 4.8081 5.71896 4.78801 5.75548C4.68337 5.94522 4.77314 6.19692 4.91329 6.32747C4.91329 6.32747 4.99053 6.40723 5.10226 6.43476C5.606 6.55883 7.10615 6.18072 7.10615 6.18072C7.36738 5.93605 7.4337 5.55494 7.27658 5.26121C7.14705 5.01893 6.88288 4.86876 6.59533 4.87062Z" fill="#A02020"/>
<path d="M3.9592 6.26567C4.03428 6.53454 4.34073 6.68389 4.64364 6.59936C4.94654 6.51478 5.13127 6.22827 5.05618 5.95934C4.98109 5.69047 4.6747 5.5411 4.37173 5.62564C4.06885 5.71028 3.88411 5.9968 3.9592 6.26567Z" fill="#4C2626"/>
<path d="M5.17128 6.62912C5.2084 6.57388 5.21752 6.50156 5.18909 6.43601C4.98369 5.96249 5.06465 5.63583 5.06825 5.62222C5.09602 5.51505 5.03263 5.40459 4.92576 5.37574C4.81896 5.3469 4.70903 5.40855 4.67923 5.51511C4.67395 5.53395 4.55293 5.98342 4.81884 6.59661C4.86322 6.6988 4.98202 6.74576 5.08426 6.70144C5.12091 6.68549 5.15053 6.66 5.17128 6.62912Z" fill="white"/>
<path d="M10.444 4.81201L12.2244 5.11774C12.3267 5.14562 12.3846 5.19672 12.413 5.22718C12.5609 5.3855 12.5356 5.65153 12.4316 5.81243C12.4316 5.81243 12.3763 5.90874 12.2747 5.96277C11.8167 6.20643 10.2697 6.20733 10.2697 6.20733C9.9565 6.03408 9.79884 5.68086 9.87914 5.35762C9.94546 5.09093 10.1648 4.88062 10.444 4.81201Z" fill="#A02020"/>
<path d="M12.0085 5.63043C12.0329 5.90852 12.3068 6.11159 12.6201 6.08392C12.9334 6.05631 13.1675 5.80854 13.143 5.53046C13.1185 5.25237 12.8447 5.0493 12.5313 5.07697C12.2181 5.10458 11.9839 5.35235 12.0085 5.63043Z" fill="#4C2626"/>
<path d="M12.3081 6.18253C12.3547 6.1351 12.3769 6.06565 12.361 5.99597C12.2459 5.49282 12.3854 5.18656 12.3914 5.17378C12.4384 5.07357 12.3963 4.95333 12.2965 4.90542C12.1968 4.85744 12.0775 4.89786 12.0286 4.99717C12.02 5.01474 11.8186 5.43441 11.9676 6.08592C11.9924 6.19459 12.1006 6.26247 12.2092 6.23765C12.2482 6.22871 12.282 6.2091 12.3081 6.18253Z" fill="white"/>
<path d="M10.0135 6.95801C10.6698 7.54002 11.3244 8.12082 11.3244 8.12082C11.3244 8.12082 11.588 7.75429 11.8713 7.81138L11.1047 8.99183C10.9394 9.004 10.763 8.92664 10.5656 8.84016C10.1826 8.67243 9.76226 8.49018 9.18091 8.2401L10.0135 6.95801Z" fill="#C93D3D"/>
<path d="M10.5163 7.39746C10.9675 7.7977 11.3247 8.1147 11.3247 8.1147C11.3247 8.1147 11.5884 7.74816 11.8717 7.80526L11.1051 8.9857C10.9398 8.99788 10.7635 8.92052 10.566 8.83404C10.3337 8.73227 10.0873 8.62504 9.7998 8.50073L10.5163 7.39746Z" fill="#210E0E"/>
<path d="M11.8701 7.80762C11.9191 7.843 11.9417 7.87928 11.953 7.90213C12.0645 8.1281 11.7541 8.44072 11.2736 8.92456C11.2548 8.94351 11.2134 8.98315 11.1534 8.9901C11.1331 8.99244 11.1157 8.9904 11.1035 8.98806C11.1309 8.85457 11.1791 8.69025 11.8701 7.80762Z" fill="#422323"/>
<path d="M7.02138 6.95801C6.36501 7.54002 5.7105 8.12082 5.7105 8.12082C5.7105 8.12082 5.44687 7.75429 5.16357 7.81138L5.93011 8.99183C6.09545 9.004 6.27182 8.92664 6.46924 8.84016C6.85227 8.67243 7.27259 8.49018 7.85394 8.24016L7.02138 6.95801Z" fill="#C93D3D"/>
<path d="M6.51901 7.40479C6.0678 7.80502 5.71056 8.12202 5.71056 8.12202C5.71056 8.12202 5.44687 7.75549 5.16357 7.81258L5.93011 8.99303C6.09551 9.0052 6.27182 8.92784 6.46924 8.84136C6.70162 8.73959 6.94798 8.63237 7.23547 8.50805L6.51901 7.40479Z" fill="#210E0E"/>
<path d="M5.16296 7.80762C5.11397 7.843 5.09136 7.87928 5.08008 7.90213C4.9686 8.1281 5.27906 8.44072 5.75948 8.92456C5.77831 8.94351 5.81963 8.98321 5.87966 8.9901C5.89999 8.99244 5.91738 8.9904 5.9295 8.98806C5.90215 8.85457 5.85399 8.69025 5.16296 7.80762Z" fill="#422323"/>
<path d="M10.1502 4.72412C10.2704 5.03087 10.3894 5.34289 10.507 5.66007C10.7333 6.27068 10.943 6.8705 11.1376 7.45833C11.1376 7.45833 8.81146 8.20903 6.09009 7.62894C6.09009 7.62894 6.2237 5.40328 7.11096 4.89522L10.1502 4.72412Z" fill="#C93D3D"/>
<path d="M7.33686 4.88129L7.34172 4.87793L7.11095 4.89088C6.2237 5.39895 6.09009 7.62461 6.09009 7.62461C7.12301 7.84482 8.0986 7.87306 8.91209 7.82365C6.79281 7.57298 7.33686 4.88129 7.33686 4.88129Z" fill="#A02020"/>
<path d="M10.6985 5.91597C10.65 5.91453 10.6007 5.92328 10.5542 5.94655C8.70603 6.87279 6.45638 5.92826 6.43389 5.9186C6.40192 5.90487 6.36894 5.89839 6.33614 5.896L6.1377 6.44202C6.15515 6.45456 6.17392 6.46565 6.19449 6.47453C6.25824 6.50205 7.22711 6.91111 8.45787 6.9583C9.19892 6.98667 10.035 6.88388 10.8255 6.48766C10.8661 6.46721 10.8995 6.43848 10.9261 6.40502L10.6985 5.91597Z" fill="#210E0E"/>
<path d="M8.96635 6.78973C8.96467 6.91351 8.86302 7.01252 8.73925 7.01084L8.46326 7.00712C8.33949 7.0055 8.24054 6.90379 8.24216 6.78002L8.24587 6.50403C8.24755 6.38032 8.3492 6.28131 8.47298 6.28293L8.74896 6.28664C8.87274 6.28832 8.97169 6.39003 8.97007 6.51375L8.96635 6.78973ZM8.8722 6.16664L8.35298 6.15969C8.2292 6.15807 8.12755 6.25702 8.12587 6.3808L8.11892 6.90002C8.11724 7.02379 8.21625 7.12544 8.34003 7.12712L8.85925 7.13408C8.98302 7.13576 9.08467 7.03675 9.08635 6.91297L9.09331 6.39375C9.09499 6.27003 8.99598 6.16832 8.8722 6.16664Z" fill="#EA7A15"/>
<path d="M10.3394 3.23475C10.3301 3.16626 10.3106 3.08524 10.3096 3.03732C10.3026 2.72176 10.1422 2.50017 10.1003 2.44764C9.77194 2.06245 9.23473 1.81076 8.62694 1.80914V1.80908C8.61464 1.80914 8.60259 1.80992 8.59041 1.81016C8.57818 1.80992 8.56613 1.80914 8.55389 1.80908V1.80914C7.94604 1.81076 7.40889 2.06245 7.08043 2.44764C7.03863 2.50017 6.87815 2.72176 6.8712 3.03732C6.87012 3.08524 6.85069 3.16626 6.84145 3.23475C6.81567 3.42485 6.80169 3.51978 6.80457 3.58689C6.81225 3.76224 6.86754 3.89004 6.88457 3.92716C6.92655 4.01897 6.97704 4.08746 7.01543 4.13273C7.1103 4.25975 7.27066 4.4396 7.51767 4.58934C7.9464 4.84919 8.37254 4.85843 8.55389 4.85183V4.85177C8.56607 4.85201 8.57818 4.85123 8.59041 4.85123C8.60259 4.85123 8.6147 4.85201 8.62694 4.85177V4.85183C8.80828 4.85843 9.23443 4.84919 9.66315 4.58934C9.91011 4.4396 10.0705 4.25975 10.1654 4.13273C10.2037 4.08746 10.2543 4.01897 10.2963 3.92716C10.3132 3.89004 10.3686 3.76224 10.3762 3.58689C10.3791 3.51978 10.3651 3.42485 10.3394 3.23475Z" fill="#EAAAA0"/>
<path d="M7.86621 3.68867C7.86621 3.94906 7.65518 4.16016 7.39479 4.16016C7.1344 4.16016 6.92336 3.94906 6.92336 3.68867C6.92336 3.42834 7.1344 3.21725 7.39479 3.21725C7.65518 3.21725 7.86621 3.42834 7.86621 3.68867Z" fill="#EA9292"/>
<path d="M7.86621 3.41662C7.86621 3.50369 7.81883 3.57422 7.76036 3.57422C7.70189 3.57422 7.65452 3.50369 7.65452 3.41662C7.65452 3.32954 7.70189 3.25902 7.76036 3.25902C7.81883 3.25902 7.86621 3.32954 7.86621 3.41662Z" fill="#210E0E"/>
<path d="M7.93932 2.83582C7.95383 2.83306 7.96931 2.83444 7.98382 2.8408C8.02244 2.85753 8.04043 2.90191 8.024 2.94065C8.01848 2.95384 7.88235 3.26329 7.46688 3.22467C7.42484 3.22071 7.39389 3.18341 7.39779 3.14131C7.40169 3.09921 7.43911 3.06839 7.48115 3.07216C7.78196 3.10035 7.87929 2.88926 7.88325 2.88026C7.89386 2.85633 7.91533 2.84038 7.93932 2.83582Z" fill="#FCF7F7"/>
<path d="M9.30542 3.69408C9.30542 3.95447 9.51651 4.16556 9.77684 4.16556C10.0372 4.16556 10.2483 3.95447 10.2483 3.69408C10.2483 3.43369 10.0372 3.22266 9.77684 3.22266C9.51651 3.22266 9.30542 3.43369 9.30542 3.69408Z" fill="#EA9292"/>
<path d="M9.30542 3.4242C9.30542 3.51128 9.3528 3.5818 9.41127 3.5818C9.46968 3.5818 9.51711 3.51128 9.51711 3.4242C9.51711 3.33713 9.46968 3.2666 9.41127 3.2666C9.3528 3.2666 9.30542 3.33713 9.30542 3.4242Z" fill="#210E0E"/>
<path d="M10.7944 3.58824C10.7172 3.48629 10.6332 3.41889 10.5734 3.37775L10.4055 2.45361L10.1573 2.63592L10.265 3.16156L10.328 3.39916C10.3004 3.74854 10.1366 4.2608 9.38796 4.09487L8.62856 3.66848L8.58754 3.66398V3.65517L8.54598 3.65973L7.78665 4.08611C6.83762 4.29649 6.82815 3.41727 6.84482 3.16156L6.95259 2.63592L6.70431 2.45361L6.51073 3.51898L6.51121 3.51916C6.46869 3.57721 6.41382 3.66129 6.36458 3.76959C6.30509 3.90057 6.22119 4.08503 6.239 4.29979C6.26149 4.57049 6.43618 4.77834 6.58503 4.90884C6.56092 4.95298 6.54599 5.00287 6.54599 5.05666C6.54599 5.22812 6.68494 5.36713 6.85639 5.36713C6.8856 5.36713 6.91331 5.36179 6.94011 5.35424C6.94461 5.37433 6.95001 5.39484 6.95756 5.41594C7.04008 5.64581 7.25657 5.73145 7.29441 5.74638C7.59498 5.8653 7.8715 5.68581 7.89879 5.66752C7.90581 5.67663 8.06719 5.87807 8.30329 5.83297C8.46461 5.80215 8.55558 5.67663 8.58706 5.62512V5.63304C8.61813 5.68419 8.70928 5.81079 8.87132 5.84173C9.10742 5.88683 9.26874 5.68539 9.27582 5.67621C9.3151 5.69936 9.61147 5.86734 9.9121 5.73786C9.96649 5.71447 10.1285 5.64467 10.2084 5.46482C10.216 5.44767 10.2223 5.4307 10.2276 5.41403C10.2341 5.41445 10.2403 5.41594 10.2468 5.41594C10.4183 5.41594 10.5573 5.27699 10.5573 5.10554C10.5573 5.05864 10.5462 5.01469 10.5276 4.97481C10.7029 4.85325 10.9083 4.66806 10.9757 4.37655C11.071 3.96473 10.8241 3.62758 10.7944 3.58824Z" fill="white"/>
<path d="M9.773 3.15622C9.78775 3.15622 9.80268 3.15196 9.81582 3.14303C9.8506 3.1194 9.85996 3.07244 9.83663 3.03742C9.82871 3.02548 9.63717 2.74692 9.23627 2.86249C9.19567 2.87418 9.17222 2.91664 9.18392 2.9573C9.19567 2.9979 9.23813 3.02117 9.27873 3.00959C9.56904 2.92575 9.70403 3.11496 9.70961 3.123C9.72448 3.14452 9.74853 3.15622 9.773 3.15622Z" fill="#FCF7F7"/>
<path d="M7.04655 4.85102C7.0222 4.85102 6.99666 4.8479 6.97015 4.84064C6.86838 4.81281 6.75978 4.72634 6.74682 4.5959C6.73801 4.50715 6.77645 4.38769 6.88182 4.33533C6.90233 4.32508 7.00961 4.27716 7.10053 4.34349C7.15156 4.38073 7.19432 4.45312 7.17471 4.5309C7.15846 4.59536 7.10622 4.64484 7.04152 4.65683C6.97291 4.66955 6.90442 4.6395 6.86658 4.58013C6.85525 4.56232 6.86047 4.53863 6.87828 4.5273C6.89609 4.51578 6.91972 4.52112 6.93111 4.53893C6.9518 4.57138 6.99066 4.58859 7.02748 4.58157C7.06772 4.57407 7.09315 4.54133 7.10047 4.51219C7.11294 4.46283 7.07798 4.42181 7.05543 4.40532C6.99924 4.36436 6.92427 4.39968 6.91594 4.40388C6.84631 4.43848 6.81651 4.52286 6.82299 4.58835C6.83234 4.68208 6.9163 4.74655 6.99036 4.76676C7.12457 4.80358 7.23336 4.69258 7.24535 4.67986C7.28601 4.63644 7.31 4.58709 7.31666 4.53312C7.33237 4.4058 7.239 4.31213 7.22011 4.29462C7.10149 4.18469 6.94125 4.21833 6.92337 4.22253C6.90292 4.22721 6.88218 4.21462 6.87732 4.19399C6.87252 4.17342 6.88529 4.15279 6.90586 4.14799C6.92787 4.14283 7.12463 4.10157 7.27216 4.23848C7.30544 4.26925 7.41243 4.38223 7.39264 4.54247C7.3867 4.59093 7.36601 4.66313 7.30118 4.73222C7.28014 4.75464 7.18178 4.85102 7.04655 4.85102Z" fill="#FCF7F7"/>
<path d="M9.35171 4.8684C9.37264 4.85599 9.39621 4.84561 9.42266 4.8383C9.52443 4.81029 9.66194 4.82924 9.73966 4.93479C9.79255 5.00663 9.82044 5.12897 9.75657 5.2278C9.74416 5.24705 9.67639 5.343 9.56431 5.33239C9.5014 5.32645 9.42769 5.28603 9.40491 5.20909C9.38596 5.1454 9.40563 5.07614 9.45516 5.03278C9.50763 4.98684 9.58188 4.97779 9.64473 5.00951C9.66356 5.01905 9.67117 5.04207 9.66164 5.0609C9.65222 5.07985 9.62913 5.08735 9.61024 5.07788C9.57588 5.06054 9.53372 5.06552 9.50566 5.09035C9.47483 5.11734 9.46967 5.15848 9.47825 5.18726C9.49276 5.23608 9.54374 5.25353 9.57156 5.25617C9.64083 5.26276 9.68724 5.1941 9.69222 5.18624C9.73444 5.12093 9.71699 5.0332 9.67801 4.98018C9.62212 4.90438 9.51705 4.89173 9.44305 4.91218C9.30883 4.949 9.27189 5.09994 9.26811 5.11704C9.25528 5.17515 9.25984 5.22984 9.28167 5.27961C9.33318 5.39716 9.46128 5.43002 9.48646 5.43548C9.64455 5.46942 9.7652 5.35871 9.7784 5.346C9.79363 5.33155 9.81786 5.33173 9.83255 5.34702C9.84724 5.36225 9.84676 5.38654 9.83153 5.40117C9.81522 5.41677 9.66709 5.55272 9.47033 5.51032C9.42602 5.50078 9.27633 5.45826 9.21156 5.31038C9.19195 5.2657 9.17294 5.19302 9.19333 5.10048C9.19999 5.0705 9.23543 4.93743 9.35171 4.8684Z" fill="#FCF7F7"/>
<path d="M10.535 4.39138C10.5314 4.41081 10.5251 4.43066 10.5154 4.45075C10.4781 4.52769 10.393 4.60139 10.2872 4.59233C10.2151 4.58622 10.1256 4.53776 10.0995 4.44601C10.0944 4.42814 10.0722 4.33554 10.1386 4.27294C10.1758 4.23779 10.2399 4.21446 10.2989 4.24169C10.3479 4.26418 10.3796 4.31318 10.3795 4.36655C10.3795 4.4231 10.3453 4.47323 10.2924 4.49452C10.2765 4.50094 10.2584 4.49326 10.252 4.47737C10.2455 4.46148 10.2532 4.44343 10.2692 4.43701C10.2981 4.42532 10.3176 4.39695 10.3175 4.36655C10.3175 4.33333 10.2952 4.30826 10.273 4.29806C10.2356 4.28079 10.1976 4.30256 10.1812 4.31809C10.1401 4.35677 10.1572 4.42178 10.1593 4.42904C10.1765 4.48967 10.2393 4.52595 10.2925 4.53051C10.3686 4.53698 10.4324 4.47965 10.4595 4.42364C10.5088 4.32217 10.4366 4.21896 10.4282 4.20751C10.3996 4.16865 10.3638 4.1422 10.3218 4.12883C10.2227 4.0974 10.1341 4.15791 10.1174 4.17039C10.0122 4.24853 10.0152 4.3813 10.0158 4.39617C10.0165 4.41314 10.0034 4.42784 9.98626 4.42862C9.9691 4.4294 9.95459 4.41614 9.95381 4.39905C9.95297 4.38076 9.94931 4.21776 10.0803 4.12055C10.1099 4.0986 10.2158 4.03012 10.3406 4.0697C10.3783 4.08163 10.4327 4.10886 10.4782 4.17075C10.4929 4.1909 10.5551 4.28361 10.535 4.39138Z" fill="#FCF7F7"/>
<path d="M7.5772 5.24831C7.5808 5.26768 7.58709 5.28759 7.59681 5.30768C7.63411 5.38462 7.71921 5.45832 7.82506 5.44927C7.89714 5.44315 7.98661 5.3947 8.0127 5.30294C8.0178 5.28507 8.04005 5.19248 7.97366 5.12987C7.93642 5.09473 7.87237 5.0714 7.8133 5.09856C7.76431 5.12111 7.73264 5.17011 7.7327 5.22348C7.73276 5.28003 7.76694 5.33017 7.81984 5.35146C7.83573 5.35787 7.85384 5.3502 7.86026 5.33431C7.86673 5.31841 7.859 5.30036 7.84305 5.29395C7.81414 5.28225 7.79465 5.25389 7.79477 5.22348C7.79477 5.19026 7.81708 5.16513 7.83921 5.155C7.87669 5.13773 7.91459 5.15949 7.93108 5.17503C7.9721 5.21371 7.95507 5.27871 7.95297 5.28597C7.93576 5.3466 7.87291 5.38288 7.81978 5.38744C7.74368 5.39392 7.67981 5.33659 7.6527 5.28057C7.60341 5.1791 7.67567 5.0759 7.68407 5.06444C7.71261 5.02558 7.74841 4.99913 7.79039 4.98576C7.88958 4.95434 7.9781 5.01485 7.99489 5.02732C8.10008 5.10546 8.09708 5.23823 8.09642 5.25311C8.0957 5.27008 8.10883 5.28477 8.12598 5.28555C8.14314 5.28633 8.15765 5.27308 8.15843 5.25599C8.15927 5.23769 8.16293 5.0747 8.03189 4.97749C8.00239 4.95554 7.89642 4.88705 7.77168 4.92663C7.73396 4.93857 7.67951 4.96579 7.63405 5.02774C7.6193 5.04783 7.55711 5.14054 7.5772 5.24831Z" fill="#FCF7F7"/>
<path d="M8.41665 4.88538C8.40256 4.87153 8.3896 4.85521 8.37839 4.83596C8.33539 4.76196 8.32178 4.6503 8.38847 4.56748C8.4338 4.51117 8.52394 4.46403 8.61461 4.49366C8.6323 4.49941 8.72154 4.5327 8.73641 4.62271C8.74475 4.67327 8.72831 4.73941 8.67272 4.77323C8.62673 4.80124 8.56837 4.8001 8.52412 4.7703C8.47728 4.73863 8.45479 4.68232 8.46667 4.62649C8.4702 4.60976 8.4867 4.59902 8.50343 4.60262C8.52028 4.6061 8.53089 4.62259 8.52736 4.63938C8.52088 4.66985 8.53353 4.70193 8.55884 4.71878C8.58637 4.73737 8.61965 4.73288 8.64046 4.72022C8.67566 4.69875 8.67884 4.65515 8.67518 4.63285C8.66601 4.57719 8.60256 4.555 8.59536 4.55273C8.53545 4.53312 8.47026 4.5649 8.4368 4.60646C8.38888 4.66595 8.40076 4.75093 8.43206 4.80472C8.48867 4.90235 8.61467 4.90001 8.62882 4.89947C8.67704 4.89749 8.71896 4.88262 8.7535 4.85521C8.835 4.79057 8.83428 4.68328 8.83326 4.66247C8.82726 4.5315 8.71548 4.45983 8.70277 4.4521C8.68831 4.44316 8.68346 4.42409 8.69239 4.40946C8.70133 4.39476 8.7204 4.39015 8.73503 4.39908C8.75062 4.40862 8.88789 4.49659 8.89527 4.65959C8.89701 4.69635 8.89461 4.82247 8.79206 4.90385C8.76112 4.92844 8.7081 4.95836 8.63134 4.96148C8.60646 4.9625 8.49479 4.96226 8.41665 4.88538Z" fill="#FCF7F7"/>
<path d="M8.46086 3.55351C8.46086 3.55351 8.29331 3.36233 7.97493 3.66331C7.65661 3.9643 7.41211 3.86289 7.41211 3.86289C7.58212 4.08202 7.86092 4.17996 8.11544 4.11153C8.43657 4.02511 8.55328 3.71855 8.56377 3.68934C8.56377 3.68934 8.5429 3.63345 8.46086 3.55351Z" fill="white"/>
<path d="M8.07773 3.99445C7.85549 4.04669 7.61747 4.00153 7.43042 3.88027C7.60163 4.08549 7.87024 4.17652 8.11701 4.11014C8.43815 4.02378 8.55485 3.71721 8.56535 3.68801C8.56535 3.68801 8.56049 3.67559 8.54748 3.65479C8.48247 3.75985 8.3398 3.93293 8.07773 3.99445Z" fill="#F4EDED"/>
<path d="M8.80042 3.54619C8.80042 3.54619 8.96797 3.355 9.28635 3.65599C9.60467 3.95698 9.84917 3.85557 9.84917 3.85557C9.67916 4.0747 9.40036 4.17263 9.14584 4.10421C8.82471 4.01779 8.708 3.71122 8.69751 3.68202C8.69751 3.68202 8.71838 3.62613 8.80042 3.54619Z" fill="white"/>
<path d="M9.18512 3.98713C9.40737 4.03936 9.64539 3.99421 9.83238 3.87295C9.66123 4.07816 9.39262 4.1692 9.14584 4.10281C8.82471 4.01646 8.708 3.70989 8.69751 3.68068C8.69751 3.68068 8.70237 3.66827 8.71538 3.64746C8.78033 3.75253 8.92306 3.9256 9.18512 3.98713Z" fill="#F4EDED"/>
<path d="M8.86408 3.57371C8.8631 3.64681 8.75899 3.70461 8.63162 3.70297C8.5042 3.7012 8.40167 3.64057 8.40265 3.56754C8.40369 3.49444 8.50774 3.43664 8.63516 3.43828C8.76253 3.44005 8.86505 3.50062 8.86408 3.57371Z" fill="#D85B5B"/>
<path d="M8.57077 3.54815C8.57402 3.57065 8.54858 3.59287 8.51387 3.59795C8.4792 3.60297 8.44844 3.58882 8.44524 3.56632C8.44198 3.54382 8.46743 3.5216 8.50214 3.51651C8.5368 3.5115 8.56757 3.52565 8.57077 3.54815Z" fill="#EA9292"/>
<path d="M8.65983 3.51993C8.65839 3.53371 8.64607 3.54376 8.63223 3.54232C8.6184 3.54088 8.60835 3.52849 8.60979 3.51472C8.61123 3.50082 8.62361 3.49083 8.63745 3.49227C8.65129 3.49372 8.66127 3.50609 8.65983 3.51993Z" fill="#EA9292"/>
<path d="M6.07972 1.52733C6.03083 1.74364 5.81584 1.87931 5.59953 1.83042C5.38322 1.78153 5.24749 1.56653 5.29642 1.35029C5.34532 1.13397 5.56032 0.998244 5.77663 1.04713C5.99288 1.09601 6.12856 1.311 6.07972 1.52733Z" fill="white"/>
<path d="M10.5592 1.79776C10.5022 1.55692 10.3357 1.00742 9.8346 0.566222C8.91208 -0.24595 7.69133 0.0447244 7.5702 0.0756689C7.5702 0.0756689 6.29002 1.21546 5.97824 1.29995C5.66639 1.38439 5.90045 1.64394 6.8523 1.39423C6.80294 1.49324 6.75365 1.59225 6.70435 1.69132C7.14261 1.83968 7.7582 1.99656 8.50609 2.03069C9.36773 2.06997 10.0783 1.93138 10.5592 1.79776Z" fill="#C93D3D"/>
<path d="M7.47588 0.498047C7.19432 0.704703 7.06424 0.902124 6.99798 1.04869C6.96199 1.12827 6.85105 1.40029 6.85321 1.39514C6.80391 1.49421 6.75462 1.59322 6.70532 1.69223C7.10124 1.82626 7.64223 1.96695 8.29434 2.01804C7.09842 1.63705 7.47588 0.498047 7.47588 0.498047Z" fill="#A02020"/>
<path d="M7.9835 0.167734C8.02122 0.000898118 7.6277 0.370073 7.61606 0.381047C7.58512 0.390702 7.54242 0.406114 7.49264 0.429503C7.52095 0.41571 7.7414 0.303686 7.71255 0.172412C7.68167 0.0322023 7.53672 0.407314 7.48959 0.431002C7.48971 0.430882 7.48989 0.430822 7.48989 0.430822C7.49115 0.432141 7.24659 0.637478 7.11016 0.807973C7.0166 0.924854 6.90734 1.10848 6.85181 1.39514C6.92899 1.19838 7.0638 0.929591 7.30188 0.668303C7.40881 0.550882 7.51675 0.456789 7.61546 0.382007C7.62074 0.381287 7.94554 0.33571 7.9835 0.167734Z" fill="#A02020"/>
<path d="M6.63476 2.95489C6.4344 2.90962 6.25857 2.77037 6.17509 2.56569C6.03932 2.23292 6.19908 1.85301 6.53191 1.71723C6.61599 1.68299 8.61509 0.888691 10.7673 1.85181C11.0953 1.99867 11.2422 2.38368 11.0954 2.71177C10.9486 3.03981 10.5638 3.18662 10.2355 3.03993C8.58576 2.3014 7.03902 2.91615 7.02355 2.92251C6.89539 2.9748 6.76022 2.98326 6.63476 2.95489Z" fill="white"/>
<path d="M8.8164 4.04572H8.45352C8.42036 4.04572 8.39355 4.01885 8.39355 3.98575C8.39355 3.95265 8.42036 3.92578 8.45352 3.92578H8.8164C8.84957 3.92578 8.87637 3.95265 8.87637 3.98575C8.87637 4.01885 8.84957 4.04572 8.8164 4.04572Z" fill="#CC4C4C"/>
<path d="M11.5609 7.33907C11.4975 7.10615 11.2574 6.9687 11.0243 7.03202C7.99425 7.85643 6.28115 7.22878 6.25081 7.21733C6.027 7.12983 5.77392 7.23958 5.68517 7.46333C5.60775 7.65859 5.68091 7.87622 5.84907 7.98812C6.03084 7.8707 6.18754 7.83646 6.28853 7.82602C6.37134 7.81745 6.56883 7.80857 7.19011 8.09421C7.38142 8.18219 7.53758 8.2635 7.64942 8.32425C7.78136 8.33025 7.92007 8.33373 8.06645 8.33373C8.42585 8.33373 8.82873 8.31334 9.27299 8.26261C9.52618 8.10998 9.74687 8.00354 9.90753 7.93271C10.4897 7.67592 10.6861 7.70854 10.774 7.73133C10.9278 7.77109 11.0385 7.85523 11.1042 7.91502C11.1539 7.90207 11.2035 7.88935 11.2539 7.87562C11.4868 7.81229 11.6243 7.57205 11.5609 7.33907Z" fill="white"/>
<path d="M13.8533 4.28616C13.8498 4.12382 13.7333 3.95489 13.5698 3.87531C13.4412 3.81264 13.3114 3.81858 13.2141 3.8915C13.1298 3.95471 13.0837 4.05648 13.0845 4.17809C13.0852 4.32346 13.156 4.46871 13.2646 4.54823C13.3929 4.64208 13.5655 4.67417 13.7437 4.64424C13.8128 4.53983 13.8561 4.41935 13.8533 4.28616ZM12.7651 4.52454C12.6861 4.52802 12.5867 4.57258 12.5548 4.66235C12.5038 4.8058 12.6005 4.96568 12.7313 5.03914C12.7535 5.02517 12.7748 5.01294 12.7952 5.00118C12.8677 4.9595 12.9201 4.92934 12.9482 4.85671C12.9748 4.78799 12.9699 4.70559 12.9342 4.61342C12.9085 4.5571 12.8499 4.5243 12.7761 4.5243C12.7725 4.5243 12.7688 4.52442 12.7651 4.52454ZM4.09545 5.49144C4.04945 5.55081 4.03632 5.63452 4.05497 5.73821C4.14576 5.77024 4.21473 5.76892 4.28387 5.76256C4.32429 5.75872 4.52729 5.73389 4.55764 5.61863C4.57797 5.54127 4.51482 5.44676 4.44303 5.40706C4.40963 5.38859 4.37185 5.38043 4.33335 5.38043C4.24148 5.38043 4.14534 5.42697 4.09545 5.49144ZM12.4269 5.76856C12.4289 5.91164 12.484 6.04046 12.5797 6.11416C12.6484 6.16706 12.7469 6.18529 12.8372 6.16196C12.9112 6.14283 12.9664 6.09887 12.9925 6.03818C13.0208 5.97275 13.0117 5.89815 12.9669 5.82817C12.9096 5.73875 12.8048 5.67716 12.7059 5.67488C12.7029 5.67476 12.6999 5.67476 12.6969 5.67476C12.5936 5.67476 12.5021 5.71566 12.4269 5.76856ZM2.77605 5.79188C2.76148 5.86193 2.76064 5.93581 2.78169 6.00832C2.83572 6.19512 3.0341 6.37833 3.21791 6.34385C3.35014 6.31908 3.44496 6.18553 3.48963 6.06877C3.53869 5.94037 3.53953 5.81227 3.49167 5.74997C3.45683 5.70463 3.38235 5.67722 3.28202 5.67284C3.2723 5.67242 3.26235 5.67218 3.25233 5.67218C3.11416 5.67218 2.94139 5.71212 2.77605 5.79188ZM4.98378 6.13347C4.85125 6.20826 4.76363 6.36813 4.7493 6.56118C4.74774 6.58247 4.74708 6.60394 4.74744 6.62541C4.81149 6.65161 4.88003 6.66858 4.9523 6.67134C5.10702 6.6765 5.28255 6.59392 5.36693 6.47314C5.40291 6.42175 5.43763 6.34061 5.39895 6.24622C5.37389 6.18493 5.32069 6.13749 5.24897 6.1126C5.21389 6.10037 5.17653 6.09443 5.13934 6.09443C5.08411 6.09443 5.02942 6.10769 4.98378 6.13347ZM10.5412 6.45983C10.5523 6.58427 10.6951 6.66385 10.8163 6.7093C10.8819 6.63908 10.9323 6.56154 10.9625 6.49101C11.0028 6.39734 11.0097 6.31524 10.9817 6.26571C10.9495 6.20879 10.8581 6.17815 10.7171 6.17689C10.6639 6.21617 10.5294 6.32927 10.5412 6.45983ZM9.65394 6.45791C9.64464 6.52699 9.70107 6.62559 9.8011 6.71512C9.84152 6.75128 9.88884 6.78577 9.94095 6.81623C9.94833 6.81041 9.95558 6.80436 9.96272 6.79812C10.1141 6.66595 10.1778 6.53827 10.1419 6.43848C10.0962 6.31116 9.91366 6.27728 9.87534 6.27146C9.73951 6.32616 9.66299 6.3905 9.65394 6.45791ZM2.32874 6.96028C2.2891 7.00094 2.24916 7.04795 2.21149 7.09827C2.21353 7.10289 2.21557 7.10744 2.21773 7.112C2.31015 7.3117 2.43698 7.38199 2.52712 7.40579C2.6735 7.44459 2.8684 7.40849 2.9574 7.26492C3.01119 7.17797 3.01815 7.06319 2.97641 6.94996C2.93629 6.84118 2.85899 6.7568 2.77473 6.72981C2.75392 6.72316 2.73293 6.72016 2.71194 6.72016C2.56268 6.72016 2.41365 6.87314 2.32874 6.96028ZM7.35271 7.12244C7.33688 7.25359 7.40926 7.39866 7.5328 7.48339C7.63379 7.55254 7.74413 7.56441 7.83559 7.51584C7.91037 7.47602 7.96284 7.40184 7.98329 7.30684C8.008 7.192 7.98126 7.06606 7.91343 6.97833C7.82611 6.86529 7.69604 6.80645 7.56512 6.78337C7.45376 6.86535 7.3698 6.98085 7.35271 7.12244ZM2.88556 7.7881C2.82553 7.81827 2.77737 7.86174 2.74577 7.9129C2.94061 7.87116 3.14529 7.87596 3.33845 7.93077C3.34456 7.93251 3.35062 7.93431 3.35668 7.93611C3.31734 7.8645 3.25809 7.80549 3.18451 7.77311C3.14481 7.75566 3.10079 7.74702 3.05563 7.74702C2.99866 7.74702 2.93989 7.76082 2.88556 7.7881ZM3.77281 8.40477C3.79932 8.39116 3.8251 8.37641 3.85017 8.36039C3.76202 8.22366 3.62444 8.11038 3.45761 8.03716C3.47776 8.12531 3.4744 8.21934 3.44196 8.3054C3.42678 8.34558 3.40615 8.3833 3.38103 8.4179C3.44771 8.3902 3.52028 8.37665 3.59308 8.37665C3.65401 8.37665 3.715 8.38612 3.77281 8.40477ZM3.84459 8.43344C3.86654 8.44405 3.88759 8.45605 3.9078 8.46948C3.89959 8.44987 3.89047 8.43062 3.8804 8.41173C3.86864 8.41922 3.85671 8.42648 3.84459 8.43344ZM3.32208 7.98846C3.12388 7.93221 2.91296 7.93137 2.71494 7.98168C2.71338 7.9869 2.712 7.99218 2.71074 7.99758C2.68861 8.09425 2.71272 8.19104 2.78061 8.27752C2.8702 8.3917 3.03116 8.47883 3.19524 8.50726C3.2819 8.45383 3.35122 8.37587 3.38582 8.28417C3.41923 8.19572 3.41755 8.09767 3.38864 8.00975C3.36687 8.00201 3.34469 7.99488 3.32208 7.98846ZM3.34798 8.50138C3.33965 8.50636 3.33149 8.51164 3.32352 8.51715C3.44214 8.51566 3.56759 8.49125 3.68567 8.44429C3.57023 8.42384 3.44783 8.44183 3.34798 8.50138ZM2.73341 8.31452C2.65773 8.21809 2.62877 8.10984 2.64892 8.00045C2.53971 8.03506 2.43536 8.08555 2.34043 8.15122C2.32622 8.16111 2.312 8.17137 2.29791 8.18192C2.46745 8.39308 2.64478 8.56681 2.89791 8.58342C2.97053 8.58822 3.04292 8.57575 3.1096 8.5499C2.95842 8.5087 2.81917 8.42378 2.73341 8.31452ZM1.15417 7.87428C0.940733 7.91032 0.773597 8.14426 0.803462 8.36495C0.809399 8.40909 0.822832 8.45185 0.842202 8.49215C0.908289 8.56651 0.992367 8.62132 1.08628 8.64381C1.21192 8.67386 1.3586 8.63548 1.46895 8.54372C1.56898 8.46048 1.62307 8.34792 1.61719 8.23488C1.61192 8.13371 1.558 8.03482 1.46919 7.96363C1.39345 7.90294 1.30031 7.86954 1.21102 7.86954C1.19183 7.86954 1.17282 7.8711 1.15417 7.87428ZM2.13497 8.06978C1.95662 7.83632 1.77222 7.59488 1.50895 7.51332C1.34241 7.46175 1.15303 7.49287 0.989189 7.5986C0.825411 7.70432 0.719085 7.86414 0.697556 8.03704C0.685022 8.13761 0.701694 8.23919 0.740314 8.33011C0.730599 8.08915 0.910329 7.85467 1.14421 7.81509C1.26787 7.79434 1.40004 7.83134 1.50667 7.91686C1.6088 7.99878 1.67093 8.11356 1.67704 8.23182C1.68388 8.36387 1.62205 8.49437 1.50733 8.58978C1.38289 8.69341 1.21624 8.73646 1.07237 8.7021C1.0464 8.69593 1.02115 8.68753 0.996685 8.67715C1.07441 8.73509 1.16832 8.77197 1.26559 8.77646C1.54799 8.78936 1.76052 8.58882 1.98541 8.37641C2.05911 8.30684 2.13467 8.23548 2.21347 8.17185C2.18703 8.13803 2.16088 8.10384 2.13497 8.06978ZM3.92675 8.56015C3.88328 8.52045 3.83206 8.49005 3.77689 8.4693C3.62378 8.54312 3.45443 8.57898 3.29749 8.57712C3.28394 8.57688 3.27026 8.57629 3.25665 8.57533C3.14067 8.69934 3.10013 8.88765 3.17293 9.0266C3.21887 9.11427 3.30882 9.17772 3.41977 9.20063C3.54618 9.2266 3.68196 9.19649 3.77407 9.12177C3.92417 9.00003 3.9872 8.78144 3.94091 8.57371C3.93629 8.56909 3.93155 8.56453 3.92675 8.56015ZM1.36502 9.30918C1.34739 9.31493 1.33024 9.32189 1.31357 9.32987C1.28772 9.36219 1.26559 9.39805 1.24814 9.43751C1.19573 9.55619 1.21 9.71074 1.28442 9.83127C1.34541 9.92993 1.43764 9.9893 1.53743 9.99409C1.62961 9.99919 1.72406 9.95313 1.79225 9.86924C1.86481 9.77982 1.89282 9.66738 1.86709 9.56843C1.84316 9.47673 1.77587 9.39493 1.6825 9.34402C1.61899 9.30936 1.54781 9.29149 1.47884 9.29149C1.43956 9.29149 1.40094 9.29736 1.36502 9.30918ZM1.53449 10.054C1.41468 10.0482 1.30493 9.97856 1.23339 9.86282C1.14943 9.72687 1.13336 9.55181 1.19213 9.41598C1.1342 9.47367 1.09156 9.5472 1.07141 9.62888C1.05258 9.70534 1.05743 9.7728 1.06487 9.81598C1.06763 9.83223 1.05666 9.84777 1.0404 9.85058C1.02379 9.8531 1.0085 9.84243 1.00574 9.82606C0.997345 9.7773 0.991827 9.70108 1.01324 9.61454C1.0488 9.47014 1.14649 9.34816 1.27555 9.28183C1.42073 9.10942 1.66169 9.03134 1.86871 9.03134C1.87183 9.03134 1.87494 9.0314 1.878 9.0314C2.1556 9.03452 2.41851 9.14726 2.65047 9.24669C2.89059 9.34972 3.13893 9.45622 3.3992 9.46324C3.63614 9.4696 3.92345 9.36933 4.03758 9.13113C4.10648 8.9875 4.09389 8.80861 4.01449 8.67038C4.02534 8.86432 3.95278 9.05401 3.81185 9.16837C3.7045 9.25538 3.55356 9.28945 3.40759 9.25934C3.27902 9.23284 3.17413 9.15811 3.1198 9.05442C3.04508 8.91176 3.06888 8.73095 3.1649 8.59272C3.08172 8.63074 2.9884 8.64933 2.89407 8.64327C2.61821 8.62522 2.42499 8.43536 2.25071 8.2188C2.17371 8.28111 2.09929 8.3514 2.02655 8.42006C1.80244 8.6317 1.57168 8.85095 1.26277 8.83637C1.05917 8.82696 0.874046 8.6976 0.788949 8.52117C0.677585 8.38984 0.615757 8.20819 0.638065 8.0296C0.661813 7.83908 0.777975 7.6636 0.956686 7.54822C1.1354 7.43284 1.34325 7.3992 1.52664 7.45605C1.80826 7.54324 1.99854 7.79242 2.18259 8.03338C2.20874 8.06762 2.2347 8.10162 2.26067 8.13491C2.27578 8.12357 2.29095 8.11254 2.30637 8.10192C2.41719 8.02522 2.54019 7.96819 2.66895 7.93197C2.70283 7.84945 2.76981 7.77917 2.85869 7.73449C2.97167 7.6777 3.10241 7.67158 3.20861 7.71824C3.31242 7.76387 3.39164 7.85521 3.43452 7.96279C3.63248 8.03902 3.79674 8.16783 3.89959 8.32645C4.02211 8.23608 4.12064 8.11404 4.17035 7.96111C4.2287 7.78174 4.19038 7.56609 4.07044 7.39836C3.96801 7.25515 3.82151 7.17173 3.66846 7.16945C3.66588 7.16945 3.6633 7.16939 3.66079 7.16939C3.41575 7.16939 3.21149 7.34193 3.01395 7.50876C2.97029 7.54564 2.927 7.58222 2.88358 7.61677C2.60178 7.84075 2.20538 7.94162 1.99314 7.7009C1.8744 7.56621 1.99836 7.29539 2.14367 7.09101C2.01251 6.75176 2.10931 6.30343 2.38367 6.00484C2.48106 5.89881 2.60004 5.81425 2.72418 5.75116C2.75098 5.64778 2.80352 5.55422 2.86007 5.48454C2.9667 5.35326 3.10085 5.28022 3.21701 5.28892C3.41119 5.30349 3.57053 5.42307 3.72465 5.53875C3.74672 5.55524 3.76861 5.57174 3.7905 5.58775C3.8687 5.64502 3.93443 5.68472 3.99158 5.71182C3.97911 5.60682 3.99764 5.51974 4.04801 5.45473C4.13389 5.34385 4.32909 5.27548 4.47206 5.35458C4.56519 5.4061 4.64435 5.52466 4.61563 5.63386C4.57623 5.78385 4.35602 5.81599 4.28945 5.82229C4.22366 5.82841 4.15578 5.83027 4.07092 5.80598C4.10061 5.90967 4.15746 6.02966 4.24082 6.16244C4.27956 6.22433 4.44543 6.47188 4.68753 6.59764C4.68783 6.58391 4.68849 6.57029 4.68945 6.55668C4.70528 6.34373 4.80423 6.16592 4.95422 6.08124C5.04513 6.0299 5.16573 6.02013 5.2687 6.05593C5.35679 6.08658 5.42282 6.14607 5.45449 6.22349C5.49263 6.31668 5.47895 6.41755 5.4161 6.50756C5.32093 6.64376 5.12423 6.73791 4.95008 6.73125C4.88027 6.72861 4.81389 6.71398 4.75152 6.69113C4.76927 6.85851 4.84387 7.02486 4.96501 7.16208C5.11763 7.33491 5.32531 7.44004 5.53472 7.45053C5.87487 7.4681 6.16897 7.28447 6.47883 7.09047C6.74444 6.92418 7.0191 6.75218 7.32908 6.71692C7.39763 6.70906 7.47391 6.70918 7.55097 6.72052C7.65814 6.64717 7.78491 6.60136 7.90443 6.58816C8.19307 6.5562 8.47841 6.66133 8.72302 6.76238L8.82101 6.80298C9.12182 6.92765 9.17598 6.95014 9.35816 6.96094C9.45322 6.96657 9.6871 6.98031 9.8874 6.85419C9.83978 6.82439 9.7972 6.79212 9.7611 6.75986C9.64296 6.65407 9.58221 6.54115 9.59451 6.44993C9.60698 6.35722 9.69657 6.27746 9.86059 6.21281L9.86749 6.21011L9.87486 6.21089C9.88548 6.21209 10.1348 6.24154 10.1983 6.41821C10.2431 6.54277 10.1735 6.69377 10.0022 6.84328C10.0008 6.84448 9.99936 6.84573 9.99798 6.84693C10.1444 6.9192 10.319 6.95728 10.482 6.91662C10.5907 6.88957 10.6884 6.8296 10.7686 6.75638C10.6386 6.70373 10.4946 6.61263 10.4814 6.46517C10.4662 6.29599 10.6373 6.1601 10.69 6.12244L10.6978 6.11686H10.7079C10.8794 6.11686 10.989 6.15698 11.0339 6.23614C11.0718 6.30307 11.066 6.40202 11.0177 6.5147C10.9871 6.58571 10.9399 6.66121 10.8789 6.73065C10.9406 6.74972 10.9863 6.75842 10.9877 6.75866C11.3062 6.81719 11.6748 6.6822 11.8638 6.4377C11.9276 6.35518 11.9808 6.26217 12.0324 6.17215C12.0794 6.09017 12.1279 6.00538 12.185 5.92718C12.2406 5.85089 12.3023 5.78721 12.3673 5.73767C12.3684 5.70697 12.3717 5.6759 12.3773 5.64472L12.3804 5.62469C12.3932 5.54013 12.4273 5.31554 12.6038 5.13995C12.6287 5.11518 12.6532 5.09443 12.6771 5.0765C12.5366 4.98523 12.4388 4.8097 12.4983 4.64226C12.5397 4.52574 12.6608 4.46907 12.7624 4.46463C12.8659 4.46037 12.9513 4.50637 12.9895 4.59009C13.0314 4.69833 13.0363 4.79531 13.0042 4.8783C12.9684 4.97072 12.902 5.00892 12.8251 5.05318C12.8166 5.05809 12.8078 5.06313 12.7989 5.06835C12.9768 5.1246 13.1715 5.06511 13.3054 5.00418C13.4405 4.94265 13.5868 4.8422 13.6943 4.71105C13.5215 4.72772 13.3561 4.68946 13.2292 4.59656C13.1039 4.50493 13.0254 4.34469 13.0245 4.17845C13.0236 4.03938 13.0797 3.91729 13.1781 3.84352C13.2942 3.75651 13.4467 3.74853 13.5961 3.82139C13.7818 3.91183 13.9092 4.09804 13.9132 4.2849C13.9159 4.41018 13.8817 4.52478 13.8245 4.62643C13.8874 4.60934 13.9502 4.58457 14.0113 4.55213C14.2515 4.42451 14.4401 4.20442 14.6066 4.01024C14.6174 3.99771 14.6364 3.99627 14.6489 4.00706C14.6615 4.0178 14.6629 4.03675 14.6521 4.04934C14.4822 4.24748 14.2896 4.47213 14.0394 4.60508C13.9546 4.65018 13.8665 4.68136 13.7788 4.69863C13.6627 4.86247 13.4892 4.98637 13.3302 5.05875C13.1188 5.15512 12.923 5.17623 12.7645 5.11998C12.7547 5.1165 12.7451 5.11261 12.7355 5.10835C12.7064 5.1285 12.6764 5.15237 12.6461 5.18247C12.4836 5.34409 12.4517 5.55446 12.4398 5.63368L12.4363 5.65527C12.434 5.66841 12.432 5.68154 12.4305 5.69455C12.5202 5.64058 12.6143 5.61323 12.7074 5.61491C12.8271 5.61767 12.9487 5.68868 13.0174 5.79584C13.0725 5.88184 13.0835 5.97887 13.0476 6.06199C13.0139 6.14001 12.9445 6.19614 12.8522 6.22007C12.7445 6.24784 12.6261 6.22559 12.5431 6.16166C12.4433 6.08478 12.3815 5.95716 12.3693 5.81377C12.3071 5.86775 12.2605 5.92544 12.2334 5.9625C12.1783 6.038 12.1306 6.12136 12.0845 6.20196C12.0319 6.29371 11.9776 6.38858 11.9113 6.47434C11.7093 6.73563 11.3162 6.8798 10.9768 6.81761C10.9608 6.81467 10.903 6.80322 10.8323 6.77977C10.7414 6.86876 10.6269 6.94235 10.4965 6.97485C10.3001 7.02379 10.102 6.97179 9.94527 6.88777C9.72344 7.04262 9.45927 7.02696 9.35463 7.02079C9.16236 7.00939 9.09957 6.98343 8.79805 6.85833L8.70017 6.81785C8.46233 6.71962 8.18617 6.61725 7.91097 6.64777C7.8191 6.65797 7.72255 6.68879 7.63595 6.73761C7.75889 6.76951 7.87703 6.83314 7.96087 6.94169C8.03925 7.04304 8.07025 7.1878 8.04195 7.3195C8.01772 7.432 7.95445 7.52052 7.86371 7.56879C7.75205 7.62822 7.61892 7.61515 7.49892 7.53281C7.35745 7.43584 7.27475 7.26798 7.29316 7.11524C7.30989 6.97695 7.38276 6.86115 7.48279 6.77335C7.43175 6.76975 7.38192 6.77125 7.33586 6.77647C7.03943 6.81023 6.77058 6.97857 6.51067 7.14127C6.20663 7.33167 5.89358 7.52837 5.53167 7.51044C5.3063 7.49917 5.08333 7.38666 4.92009 7.20178C4.78288 7.04639 4.70162 6.85551 4.68915 6.66499C4.41671 6.53647 4.23212 6.26151 4.18996 6.19428C4.09383 6.04112 4.03158 5.90223 4.00405 5.78259C3.93437 5.75398 3.85329 5.70811 3.755 5.63614C3.73293 5.61995 3.71086 5.60334 3.68867 5.58673C3.54145 5.4762 3.38918 5.36196 3.21251 5.34871C3.1153 5.34169 2.9995 5.40808 2.90667 5.52232C2.86403 5.57491 2.82379 5.64214 2.79728 5.71674C2.96993 5.64154 3.14637 5.60676 3.28466 5.61293C3.40472 5.61821 3.49269 5.65299 3.53923 5.71344C3.60022 5.79284 3.60274 5.94073 3.54564 6.09017C3.48028 6.26103 3.3619 6.37791 3.22894 6.4028C3.00748 6.44388 2.78541 6.2368 2.72406 6.02499C2.70481 5.95848 2.70163 5.89119 2.70972 5.82631C2.607 5.88346 2.50948 5.95656 2.42781 6.04538C2.17797 6.31734 2.08328 6.71932 2.18667 7.0332C2.22061 6.98954 2.25455 6.95044 2.28574 6.91842C2.3917 6.80969 2.5893 6.60735 2.79296 6.67272C2.89443 6.70517 2.98631 6.80346 3.03266 6.92921C3.08082 7.05989 3.072 7.19374 3.00831 7.29647C2.90409 7.4648 2.6798 7.5081 2.51176 7.46378C2.41191 7.4374 2.27302 7.3622 2.17143 7.1544C2.04094 7.34582 1.95398 7.56579 2.03812 7.66127C2.22355 7.87164 2.59284 7.77119 2.84622 7.56981C2.88921 7.53563 2.93209 7.49947 2.97521 7.463C3.18109 7.28915 3.3938 7.10942 3.66055 7.10942C3.66348 7.10942 3.66648 7.10948 3.66942 7.10948C3.84166 7.11206 4.00561 7.20459 4.11926 7.36345C4.25005 7.54636 4.29149 7.78252 4.22738 7.97971C4.17293 8.1472 4.06456 8.28027 3.93023 8.3779C3.943 8.40129 3.95446 8.42528 3.96447 8.44975C3.97725 8.48057 3.9875 8.51206 3.99542 8.5439C4.14402 8.7036 4.18618 8.95985 4.09173 9.15703C3.96591 9.4194 3.65407 9.52903 3.39752 9.52321C3.12585 9.51589 2.87218 9.40705 2.62685 9.3018C2.4001 9.20459 2.14295 9.09437 1.87728 9.09137C1.8744 9.09137 1.87153 9.09131 1.86859 9.09131C1.71476 9.09131 1.54091 9.13724 1.40982 9.23673C1.50907 9.2206 1.61599 9.23949 1.71123 9.29137C1.81911 9.3502 1.89707 9.44567 1.92514 9.55331C1.9556 9.67068 1.92328 9.80291 1.83872 9.90702C1.7622 10.0013 1.65779 10.0544 1.55021 10.0544C1.54499 10.0544 1.53977 10.0542 1.53449 10.054Z" fill="#5B3434"/>
<path d="M0.662864 10.3489C0.662385 10.2917 0.669521 10.2307 0.685173 10.1688C0.747902 9.92113 0.923134 9.75189 1.0766 9.79069C1.23006 9.82955 1.30364 10.0618 1.24097 10.3094C1.22532 10.3714 1.20259 10.4284 1.17495 10.4785L1.09225 10.4576L1.02964 10.6883L0.946042 10.6657L1.00829 10.4363L0.832639 10.3919L0.77123 10.6182L0.687632 10.5955L0.748621 10.3706L0.662864 10.3489Z" fill="#5B3434"/>
<path d="M14.6577 4.98213C14.6598 4.98009 14.664 4.97601 14.6683 4.9702C14.743 4.86861 14.6035 4.57511 14.4626 4.57038C14.4333 4.56936 14.3948 4.58057 14.3641 4.6045C14.3335 4.62825 14.313 4.66267 14.3067 4.69152C14.2766 4.82903 14.5264 5.03634 14.644 4.98909C14.6504 4.98651 14.6553 4.98363 14.6577 4.98213Z" fill="#CE4D38"/>
<path d="M14.4351 4.56951L14.3115 4.66553L14.1701 4.48356L14.2936 4.38755L14.4351 4.56951Z" fill="#5B3434"/>
<path d="M13.6051 5.66902C13.6076 5.66746 13.6125 5.66435 13.6179 5.65955C13.7121 5.57565 13.6365 5.25961 13.4997 5.22573C13.4712 5.21865 13.4313 5.22171 13.3962 5.23868C13.3613 5.25559 13.3342 5.28504 13.322 5.3119C13.2641 5.44018 13.4653 5.69481 13.5903 5.67298C13.5971 5.67178 13.6024 5.66998 13.6051 5.66902Z" fill="#2C966A"/>
<path d="M13.4745 5.21982L13.3337 5.28809L13.2332 5.08071L13.374 5.01245L13.4745 5.21982Z" fill="#5B3434"/>
<path d="M12.8586 3.28185C12.8562 3.28359 12.8515 3.28707 12.8465 3.29228C12.7591 3.38326 12.859 3.69246 12.998 3.71561C13.027 3.72047 13.0666 3.71435 13.1002 3.69468C13.1336 3.67513 13.1585 3.64365 13.1685 3.61594C13.2163 3.48353 12.9959 3.24533 12.8731 3.27675C12.8663 3.27849 12.8611 3.28065 12.8586 3.28185Z" fill="#2A71C6"/>
<path d="M13.0229 3.71912L13.158 3.64014L13.2743 3.83908L13.1392 3.91806L13.0229 3.71912Z" fill="#5B3434"/>
<path d="M11.86 4.4645C11.8593 4.46738 11.8582 4.47313 11.858 4.48033C11.8538 4.60639 12.1347 4.76974 12.2536 4.69406C12.2783 4.67829 12.3037 4.64729 12.3156 4.61022C12.3274 4.57328 12.3249 4.53334 12.3138 4.506C12.261 4.37556 11.9378 4.34558 11.8674 4.451C11.8635 4.45682 11.8611 4.46192 11.86 4.4645Z" fill="#DDBC31"/>
<path d="M12.2753 4.68271L12.323 4.53369L12.5424 4.60392L12.4947 4.75294L12.2753 4.68271Z" fill="#5B3434"/>
<path d="M12.2391 6.75592C12.2418 6.75718 12.2471 6.75951 12.2541 6.76137C12.3761 6.79322 12.5972 6.55508 12.5495 6.42242C12.5397 6.39478 12.515 6.36323 12.4814 6.3435C12.448 6.32383 12.4084 6.31754 12.3794 6.32233C12.2405 6.34524 12.1401 6.65391 12.2276 6.74578C12.2323 6.75082 12.2368 6.75424 12.2391 6.75592Z" fill="#CE4D38"/>
<path d="M12.5422 6.40012L12.4072 6.3208L12.524 6.12217L12.6589 6.20149L12.5422 6.40012Z" fill="#5B3434"/>
<path d="M11.3389 6.02079C11.3377 6.02349 11.3353 6.02883 11.3335 6.03579C11.3016 6.15783 11.5398 6.37893 11.6724 6.33126C11.7001 6.32136 11.7316 6.29672 11.7513 6.26313C11.771 6.22973 11.7773 6.19015 11.7725 6.16106C11.7496 6.02217 11.4409 5.9219 11.3491 6.00928C11.344 6.01408 11.3406 6.01852 11.3389 6.02079Z" fill="#2A71C6"/>
<path d="M11.698 6.3239L11.7773 6.18896L11.976 6.30572L11.8967 6.44066L11.698 6.3239Z" fill="#5B3434"/>
<path d="M11.3042 7.50838C11.3071 7.50784 11.3128 7.5067 11.3195 7.50412C11.4374 7.4592 11.4792 7.13692 11.3634 7.05656C11.3393 7.03989 11.3008 7.02844 11.2621 7.03185C11.2235 7.03527 11.1876 7.05314 11.1667 7.07389C11.0669 7.1732 11.1644 7.48277 11.2889 7.50682C11.2957 7.50814 11.3014 7.50832 11.3042 7.50838Z" fill="#2C966A"/>
<path d="M11.3399 7.03949L11.1841 7.05322L11.1639 6.82365L11.3197 6.80992L11.3399 7.03949Z" fill="#5B3434"/>
<path d="M10.6077 5.47888C10.6049 5.47972 10.5994 5.48152 10.5929 5.48476C10.4806 5.54209 10.4736 5.86701 10.5974 5.93441C10.6232 5.94845 10.6626 5.95564 10.7008 5.94809C10.7388 5.94059 10.7725 5.919 10.7911 5.89609C10.8797 5.78665 10.7495 5.48938 10.6231 5.47882C10.6162 5.47822 10.6106 5.47864 10.6077 5.47888Z" fill="#DDBC31"/>
<path d="M10.6204 5.94838L10.7739 5.91797L10.8187 6.14398L10.6652 6.17439L10.6204 5.94838Z" fill="#5B3434"/>
<path d="M10.1769 7.65282C10.1798 7.653 10.1857 7.65312 10.1928 7.65222C10.3179 7.63549 10.4325 7.33144 10.3381 7.22667C10.3185 7.20484 10.2837 7.18493 10.2452 7.17936C10.2069 7.17384 10.1678 7.18295 10.1428 7.19843C10.0228 7.27213 10.0467 7.59585 10.1624 7.64778C10.1687 7.65066 10.1741 7.65216 10.1769 7.65282Z" fill="#CE4D38"/>
<path d="M10.3208 7.20748L10.166 7.18506L10.1991 6.95692L10.3538 6.97934L10.3208 7.20748Z" fill="#5B3434"/>
<path d="M9.95427 5.56641C9.95127 5.56641 9.94545 5.56665 9.93844 5.56803C9.81466 5.59255 9.71937 5.9032 9.82012 6.00185C9.84105 6.02242 9.87703 6.04005 9.91583 6.04323C9.95445 6.04635 9.99283 6.03477 10.0169 6.0178C10.132 5.93666 10.0878 5.6151 9.96908 5.57054C9.96254 5.56809 9.95709 5.56695 9.95427 5.56641Z" fill="#2A71C6"/>
<path d="M9.83794 6.02256L9.9939 6.03516L9.97534 6.26487L9.81939 6.25228L9.83794 6.02256Z" fill="#5B3434"/>
<path d="M8.92268 7.61334C8.92561 7.61364 8.93143 7.61412 8.93863 7.61358C9.06438 7.60357 9.19506 7.30606 9.10648 7.19643C9.08801 7.17358 9.05437 7.15187 9.01623 7.1442C8.97821 7.13664 8.93875 7.14366 8.91284 7.15775C8.78918 7.22498 8.79578 7.54947 8.90846 7.60752C8.91464 7.6107 8.91998 7.6125 8.92268 7.61334Z" fill="#2C966A"/>
<path d="M9.09264 7.17909L8.93921 7.14844L8.98436 6.92244L9.13779 6.95309L9.09264 7.17909Z" fill="#5B3434"/>
<path d="M8.24406 5.94727C8.24112 5.94727 8.23525 5.94751 8.22823 5.94888C8.10445 5.97341 8.00916 6.28406 8.10991 6.38271C8.13084 6.40322 8.16682 6.42091 8.20562 6.42409C8.24424 6.4272 8.28262 6.41563 8.30673 6.39866C8.42175 6.31752 8.37756 5.99596 8.25888 5.95134C8.25234 5.94894 8.24688 5.94775 8.24406 5.94727Z" fill="#DDBC31"/>
<path d="M8.12774 6.3961L8.28369 6.40869L8.26514 6.63841L8.10918 6.62581L8.12774 6.3961Z" fill="#5B3434"/>
<path d="M8.02499 8.22423C8.02769 8.22297 8.0329 8.22046 8.03884 8.21632C8.14193 8.14369 8.10295 7.82106 7.97084 7.77182C7.94337 7.76157 7.90337 7.76001 7.86661 7.77284C7.83003 7.78567 7.79968 7.81182 7.78451 7.83713C7.71231 7.95797 7.88322 8.23389 8.00982 8.22651C8.01671 8.22609 8.02223 8.22489 8.02499 8.22423Z" fill="#CE4D38"/>
<path d="M7.94423 7.7632L7.79663 7.81494L7.72039 7.59745L7.86799 7.54571L7.94423 7.7632Z" fill="#5B3434"/>
<path d="M6.63951 6.21699C6.637 6.21855 6.6322 6.22184 6.62692 6.22676C6.53487 6.313 6.61823 6.62706 6.75586 6.65753C6.78452 6.66388 6.82434 6.65986 6.85894 6.64205C6.89343 6.62424 6.91987 6.59414 6.93133 6.56697C6.98608 6.43732 6.77858 6.18778 6.65427 6.21267C6.64743 6.21399 6.64215 6.21597 6.63951 6.21699Z" fill="#2A71C6"/>
<path d="M6.7824 6.66351L6.92139 6.5918L7.02706 6.79661L6.88807 6.86832L6.7824 6.66351Z" fill="#5B3434"/>
<path d="M6.43668 7.94916C6.43925 7.94766 6.44423 7.9446 6.44969 7.93992C6.54528 7.85764 6.47518 7.54034 6.33893 7.50412C6.31056 7.49656 6.27062 7.4989 6.2353 7.51528C6.2001 7.53159 6.17245 7.56055 6.15986 7.58718C6.09965 7.71444 6.29653 7.97249 6.42174 7.95288C6.42864 7.9518 6.43398 7.95012 6.43668 7.94916Z" fill="#2C966A"/>
<path d="M6.31259 7.50008L6.17065 7.56592L6.07367 7.35685L6.21561 7.29101L6.31259 7.50008Z" fill="#5B3434"/>
<path d="M5.43813 6.67751C5.43555 6.67601 5.43051 6.67313 5.42374 6.67068C5.30524 6.62738 5.06254 6.84345 5.09738 6.98C5.10464 7.00849 5.12623 7.04225 5.15771 7.06504C5.18914 7.08783 5.22794 7.09784 5.25732 7.0958C5.39777 7.08621 5.52695 6.78846 5.44863 6.68873C5.44437 6.68321 5.44023 6.67937 5.43813 6.67751Z" fill="#DDBC31"/>
<path d="M5.10281 7.00544L5.22949 7.09717L5.09433 7.28383L4.96765 7.19211L5.10281 7.00544Z" fill="#5B3434"/>
<path d="M5.04825 5.376C5.04537 5.3766 5.03967 5.37798 5.03308 5.38079C4.91674 5.42967 4.88579 5.75315 5.00423 5.82949C5.02894 5.84544 5.06768 5.85552 5.1063 5.85078C5.1448 5.8461 5.18006 5.82709 5.20027 5.80562C5.29664 5.70301 5.18882 5.39693 5.0636 5.37702C5.0567 5.37594 5.05107 5.37594 5.04825 5.376Z" fill="#CE4D38"/>
<path d="M5.02658 5.84903L5.18188 5.83008L5.20979 6.05879L5.05448 6.07774L5.02658 5.84903Z" fill="#5B3434"/>
<path d="M3.77553 6.73817C3.77768 6.74021 3.78212 6.74398 3.78824 6.74782C3.89535 6.81445 4.17714 6.65265 4.17097 6.51184C4.16971 6.48251 4.15555 6.44503 4.12935 6.41625C4.10326 6.38758 4.06734 6.36983 4.03813 6.36575C3.8987 6.34638 3.71136 6.61139 3.76755 6.72503C3.77061 6.73127 3.77385 6.73589 3.77553 6.73817Z" fill="#2A71C6"/>
<path d="M4.16654 6.48783L4.06128 6.37207L4.23179 6.21702L4.33705 6.33278L4.16654 6.48783Z" fill="#5B3434"/>
<path d="M4.72035 4.75161C4.71759 4.75054 4.71207 4.74868 4.705 4.74742C4.58074 4.72553 4.3796 4.9807 4.43783 5.1091C4.44995 5.13584 4.47705 5.16529 4.51207 5.18226C4.54704 5.19917 4.58692 5.20223 4.61558 5.19509C4.75213 5.16109 4.82716 4.84529 4.73264 4.76079C4.72749 4.75617 4.72275 4.75311 4.72035 4.75161Z" fill="#2C966A"/>
<path d="M4.44778 5.13938L4.58862 5.20752L4.48825 5.41498L4.34741 5.34684L4.44778 5.13938Z" fill="#5B3434"/>
<path d="M3.31835 4.63623C3.31541 4.63635 3.30959 4.63677 3.30257 4.63845C3.17982 4.66747 3.09604 4.98148 3.20027 5.07635C3.22198 5.09608 3.25856 5.11239 3.29748 5.11413C3.33622 5.11581 3.37412 5.10286 3.39757 5.08498C3.50953 4.99971 3.45352 4.68001 3.33328 4.63977C3.32668 4.63761 3.32117 4.63665 3.31835 4.63623Z" fill="#DDBC31"/>
<path d="M3.22022 5.09809L3.37646 5.10498L3.3663 5.33522L3.21006 5.32833L3.22022 5.09809Z" fill="#5B3434"/>
<path d="M3.45495 5.84152C3.45393 5.83877 3.45172 5.83337 3.44794 5.82719C3.38215 5.71961 3.05771 5.7376 2.99996 5.86617C2.98797 5.89298 2.98377 5.9328 2.99427 5.97028C3.0047 6.00764 3.02881 6.0396 3.0531 6.05634C3.16896 6.13628 3.45537 5.98359 3.45621 5.85682C3.45627 5.84986 3.45543 5.84434 3.45495 5.84152Z" fill="#CE4D38"/>
<path d="M2.98647 5.89179L3.02856 6.04248L2.8066 6.10449L2.7645 5.95379L2.98647 5.89179Z" fill="#5B3434"/>
<path d="M1.7102 5.76484C1.70876 5.76742 1.70606 5.77264 1.70384 5.77942C1.66426 5.89924 1.88789 6.13504 2.0233 6.09588C2.05149 6.08772 2.08453 6.06517 2.10636 6.03291C2.12813 6.00083 2.13695 5.96172 2.13401 5.9324C2.11998 5.79231 1.81827 5.67261 1.72106 5.75399C1.71572 5.75843 1.712 5.76268 1.7102 5.76484Z" fill="#2A71C6"/>
<path d="M2.05094 6.08421L2.13867 5.95459L2.32948 6.08374L2.24174 6.21336L2.05094 6.08421Z" fill="#5B3434"/>
<path d="M1.54505 7.32512C1.54673 7.32758 1.55009 7.33232 1.55512 7.33747C1.6437 7.42731 1.95554 7.33591 1.98247 7.1975C1.98805 7.16872 1.98307 7.12896 1.96436 7.09483C1.94565 7.06083 1.91488 7.03522 1.88748 7.02443C1.75644 6.97304 1.51225 7.18689 1.54031 7.31049C1.54187 7.31726 1.54391 7.32248 1.54505 7.32512Z" fill="#2C966A"/>
<path d="M1.98686 7.16836L1.91162 7.03125L2.11366 6.92038L2.18891 7.05749L1.98686 7.16836Z" fill="#5B3434"/>
<path d="M2.71831 6.75509C2.71543 6.75443 2.70967 6.75329 2.70247 6.75299C2.57642 6.74831 2.41198 7.02855 2.48724 7.14777C2.50289 7.1726 2.53378 7.19808 2.57078 7.21014C2.60766 7.22207 2.64766 7.21967 2.67507 7.2087C2.80568 7.15634 2.83693 6.83329 2.73174 6.76252C2.72598 6.75862 2.72088 6.75623 2.71831 6.75509Z" fill="#DDBC31"/>
<path d="M2.5026 7.17341L2.65137 7.22168L2.58024 7.44089L2.43147 7.39262L2.5026 7.17341Z" fill="#5B3434"/>
<path d="M2.64451 7.62156C2.64481 7.61862 2.64523 7.6128 2.64457 7.60561C2.63323 7.47997 2.33434 7.35247 2.22562 7.44225C2.20301 7.4609 2.1816 7.49478 2.1744 7.53304C2.16721 7.57112 2.1747 7.61052 2.18904 7.63625C2.25758 7.75919 2.58196 7.74917 2.63887 7.63583C2.64199 7.62965 2.64373 7.62432 2.64451 7.62156Z" fill="#CE4D38"/>
<path d="M2.20793 7.45605L2.17896 7.60986L1.95247 7.5672L1.98145 7.41338L2.20793 7.45605Z" fill="#5B3434"/>
<path d="M3.54601 7.89694C3.54865 7.89556 3.55374 7.8928 3.55944 7.88836C3.65917 7.81112 3.60544 7.49064 3.47122 7.44746C3.44328 7.43847 3.40322 7.43877 3.36712 7.45328C3.33114 7.46779 3.30205 7.49526 3.28808 7.52129C3.22145 7.64524 3.40484 7.91307 3.53095 7.89988C3.53785 7.89916 3.54325 7.89772 3.54601 7.89694Z" fill="#2A71C6"/>
<path d="M3.44469 7.44153L3.29956 7.5L3.21346 7.28629L3.35858 7.22782L3.44469 7.44153Z" fill="#5B3434"/>
<path d="M4.48518 6.79332C4.48278 6.79152 4.47804 6.78816 4.47163 6.78499C4.35852 6.72909 4.09376 6.91746 4.11361 7.05707C4.11774 7.08609 4.1355 7.12202 4.16434 7.1481C4.19313 7.17413 4.23055 7.18834 4.26005 7.18954C4.40068 7.19524 4.5614 6.91326 4.49442 6.80562C4.49076 6.79968 4.4871 6.79542 4.48518 6.79332Z" fill="#2C966A"/>
<path d="M4.11731 7.08739L4.2334 7.19238L4.07885 7.36327L3.96276 7.25828L4.11731 7.08739Z" fill="#5B3434"/>
<path d="M4.88684 8.08695C4.8875 8.08408 4.88864 8.07832 4.88894 8.07118C4.89362 7.94513 4.61332 7.78063 4.49416 7.85589C4.46933 7.87154 4.44378 7.90243 4.43179 7.93943C4.4198 7.97637 4.42225 8.01631 4.43317 8.04372C4.48558 8.17433 4.80864 8.20557 4.8794 8.10039C4.8833 8.09463 4.8857 8.08953 4.88684 8.08695Z" fill="#DDBC31"/>
<path d="M4.4721 7.87125L4.42383 8.02002L4.20461 7.94889L4.25288 7.80013L4.4721 7.87125Z" fill="#5B3434"/>
<path d="M4.13561 9.03952C4.13825 9.03814 4.14334 9.03538 4.14904 9.03094C4.24877 8.9537 4.19504 8.63322 4.06082 8.59004C4.03288 8.58105 3.99282 8.58135 3.95672 8.59586C3.92073 8.61037 3.89159 8.63784 3.87768 8.66386C3.81105 8.78782 3.99444 9.05565 4.12055 9.04245C4.12745 9.04174 4.13285 9.0403 4.13561 9.03952Z" fill="#CE4D38"/>
<path d="M4.03423 8.58413L3.88916 8.64258L3.80304 8.42881L3.94811 8.37036L4.03423 8.58413Z" fill="#5B3434"/>
<path d="M2.87437 8.42699C2.87641 8.42915 2.88055 8.43328 2.88636 8.43748C2.98861 8.51136 3.28096 8.36942 3.2845 8.22849C3.28522 8.19916 3.27371 8.16078 3.24954 8.13026C3.22549 8.09985 3.19089 8.07964 3.16204 8.07358C3.02429 8.04468 2.81908 8.29613 2.86729 8.41337C2.86993 8.41979 2.87287 8.42459 2.87437 8.42699Z" fill="#2A71C6"/>
<path d="M3.28672 8.20136L3.1897 8.07861L3.37045 7.93574L3.46748 8.05849L3.28672 8.20136Z" fill="#5B3434"/>
<path d="M2.48561 9.20398C2.48855 9.20452 2.49431 9.20548 2.50144 9.20548C2.62762 9.20578 2.78216 8.91996 2.70282 8.80344C2.68627 8.77915 2.65455 8.75474 2.61712 8.74407C2.57982 8.73339 2.53994 8.73717 2.51296 8.74911C2.3842 8.80602 2.36435 9.12998 2.47188 9.19702C2.47781 9.20074 2.48297 9.2029 2.48561 9.20398Z" fill="#2C966A"/>
<path d="M2.6882 8.78084L2.53784 8.73779L2.60127 8.51623L2.75163 8.55928L2.6882 8.78084Z" fill="#5B3434"/>
<path d="M1.53037 8.36107C1.53241 8.36323 1.53655 8.36737 1.54237 8.37156C1.64462 8.44545 1.93697 8.3035 1.94051 8.16257C1.94129 8.13324 1.92971 8.09486 1.90561 8.06434C1.8815 8.03393 1.84696 8.01372 1.81805 8.00767C1.6803 7.97876 1.47508 8.23021 1.5233 8.34746C1.52594 8.35387 1.52887 8.35867 1.53037 8.36107Z" fill="#DDBC31"/>
<path d="M1.94273 8.13544L1.8457 8.0127L2.02646 7.86982L2.12348 7.99257L1.94273 8.13544Z" fill="#5B3434"/>
<path d="M0.679181 6.95543C0.676963 6.95741 0.672645 6.96131 0.668207 6.96695C0.589946 7.06596 0.719121 7.36413 0.859751 7.37378C0.889076 7.37576 0.927876 7.36593 0.959421 7.34314C0.990845 7.32041 1.01255 7.28671 1.01981 7.25816C1.05465 7.12173 0.812315 6.90584 0.693094 6.94896C0.686558 6.95129 0.68164 6.95399 0.679181 6.95543Z" fill="#CE4D38"/>
<path d="M0.887579 7.3719L1.0144 7.28027L1.14937 7.46708L1.02254 7.55871L0.887579 7.3719Z" fill="#5B3434"/>
<path d="M0.000271239 8.3152C0.00105085 8.31807 0.00273 8.32365 0.0059084 8.33013C0.0614405 8.44335 0.386177 8.45559 0.455562 8.33289C0.470015 8.3074 0.477871 8.26812 0.470915 8.2298C0.464018 8.1916 0.442969 8.15754 0.42036 8.13864C0.312414 8.04833 0.0130448 8.17367 0.000451148 8.29984C-0.00026849 8.30674 3.13592e-05 8.31238 0.000271239 8.3152Z" fill="#2A71C6"/>
<path d="M0.467341 8.30581L0.439453 8.15186L0.666227 8.11078L0.694115 8.26473L0.467341 8.30581Z" fill="#5B3434"/>
<path d="M1.29381 8.51217C1.29645 8.51079 1.30155 8.50803 1.30724 8.5036C1.40697 8.42636 1.35324 8.10588 1.21903 8.0627C1.19108 8.0537 1.15102 8.054 1.11492 8.06852C1.07894 8.08303 1.04985 8.11049 1.03588 8.13652C0.969253 8.26048 1.15264 8.5283 1.27876 8.51511C1.28565 8.51439 1.29105 8.51295 1.29381 8.51217Z" fill="#2C966A"/>
<path d="M1.19249 8.05676L1.04736 8.11523L0.961261 7.90152L1.10639 7.84305L1.19249 8.05676Z" fill="#5B3434"/>
<path d="M2.09886 9.20655C2.10102 9.20451 2.10516 9.20038 2.10936 9.19456C2.18324 9.09231 2.04129 8.79996 1.90036 8.79642C1.87104 8.7957 1.83266 8.80721 1.80213 8.83138C1.77173 8.85543 1.75152 8.89003 1.74546 8.91888C1.71655 9.05663 1.96801 9.26184 2.08525 9.21363C2.09167 9.21099 2.09646 9.20811 2.09886 9.20655Z" fill="#DDBC31"/>
<path d="M1.8769 8.79458L1.75415 8.8916L1.61128 8.71084L1.73402 8.61382L1.8769 8.79458Z" fill="#5B3434"/>
<path d="M3.96715 10.0796C3.96979 10.0782 3.97489 10.0754 3.98058 10.071C4.08031 9.99374 4.02658 9.67326 3.89237 9.63008C3.86442 9.62109 3.82436 9.62139 3.78826 9.6359C3.75228 9.65041 3.72319 9.67794 3.70922 9.7039C3.64259 9.82792 3.82598 10.0957 3.9521 10.0825C3.95899 10.0818 3.96439 10.0803 3.96715 10.0796Z" fill="#CE4D38"/>
<path d="M3.86583 9.62415L3.7207 9.68262L3.6346 9.46891L3.77973 9.41044L3.86583 9.62415Z" fill="#5B3434"/>
<path d="M3.33503 8.77947C3.33222 8.77845 3.3267 8.77665 3.31962 8.77551C3.19507 8.75554 2.99782 9.01383 3.05803 9.14126C3.07057 9.16777 3.09815 9.19686 3.13348 9.21329C3.16862 9.2296 3.20862 9.23212 3.2371 9.2245C3.37312 9.1884 3.44328 8.87146 3.34751 8.78846C3.34223 8.7839 3.33749 8.78091 3.33503 8.77947Z" fill="#2A71C6"/>
<path d="M3.06979 9.16988L3.21167 9.23584L3.11454 9.44477L2.97266 9.37881L3.06979 9.16988Z" fill="#5B3434"/>
</svg>
