<svg width="11" height="10" viewBox="0 0 11 10" fill="none" xmlns="http://www.w3.org/2000/svg">
<path d="M5.5761 4.44718L7.30407 3.92034C7.40794 3.89929 7.4826 3.91896 7.5217 3.93335C7.725 4.00838 7.82185 4.25743 7.80134 4.44784C7.80134 4.44784 7.79516 4.55872 7.72866 4.65269C7.42899 5.07614 6.04728 5.77203 6.04728 5.77203C5.68962 5.758 5.39007 5.51326 5.31661 5.1884C5.25604 4.9204 5.35745 4.63392 5.5761 4.44718Z" fill="#A02020"/>
<path d="M8.48561 3.77636C8.60483 4.02872 8.47089 4.34225 8.18646 4.47656C7.90209 4.61084 7.5749 4.51511 7.45576 4.26265C7.33651 4.01025 7.47042 3.69679 7.75485 3.56248C8.03925 3.42813 8.36641 3.52393 8.48561 3.77636Z" fill="#4C2626"/>
<path d="M7.80662 4.84511C7.7424 4.82766 7.68818 4.77891 7.66684 4.71078C7.51217 4.21831 7.23715 4.02436 7.22558 4.01639C7.13442 3.95354 7.11008 3.8285 7.17196 3.73675C7.23385 3.64506 7.35727 3.61969 7.44962 3.6808C7.46594 3.69159 7.8516 3.95222 8.05178 4.58988C8.08518 4.69621 8.02605 4.80943 7.91973 4.84283C7.88159 4.85477 7.84255 4.85489 7.80662 4.84511Z" fill="white"/>
<path d="M2.18404 4.94788L0.801317 6.11046C0.727075 6.18614 0.702967 6.25942 0.693791 6.30008C0.645995 6.51141 0.802157 6.72826 0.973071 6.81474C0.973071 6.81474 1.06944 6.86991 1.1844 6.8653C1.70278 6.84449 3.03879 6.06446 3.03879 6.06446C3.2217 5.75681 3.17954 5.37229 2.94704 5.13379C2.75526 4.93709 2.45972 4.8662 2.18404 4.94788Z" fill="#A02020"/>
<path d="M1.24562 6.44238C1.36484 6.69473 1.23085 7.00829 0.946474 7.14257C0.662102 7.27685 0.334911 7.18113 0.215767 6.92867C0.0965159 6.67626 0.230428 6.36281 0.514801 6.22853C0.799256 6.09414 1.12642 6.18995 1.24562 6.44238Z" fill="#4C2626"/>
<path d="M1.26244 7.07167C1.19821 7.05422 1.144 7.00553 1.12259 6.93734C0.967984 6.44487 0.692962 6.25093 0.681388 6.24289C0.590233 6.1801 0.565886 6.05507 0.627774 5.96331C0.689663 5.87162 0.813081 5.84625 0.905435 5.90736C0.921747 5.91815 1.30741 6.17878 1.50759 6.81644C1.541 6.92277 1.48187 7.03599 1.37554 7.0694C1.3374 7.08133 1.29836 7.08145 1.26244 7.07167Z" fill="white"/>
<path d="M2.85253 7.85889C2.9832 8.72635 3.11382 9.5916 3.11382 9.5916C3.11382 9.5916 2.66284 9.61307 2.5564 9.88179H3.96395C4.06416 9.74974 4.09534 9.55969 4.13037 9.34704C4.19825 8.93445 4.27435 8.48263 4.38128 7.85889H2.85253Z" fill="#C93D3D"/>
<path d="M2.95262 8.52539C3.04257 9.12179 3.11388 9.59405 3.11388 9.59405C3.11388 9.59405 2.66284 9.61558 2.5564 9.88425H3.96395C4.06422 9.75219 4.09534 9.56221 4.13037 9.3495C4.17156 9.09918 4.21582 8.83418 4.26812 8.52539H2.95262Z" fill="#210E0E"/>
<path d="M5.98945 7.85889C5.85877 8.72635 5.7281 9.5916 5.7281 9.5916C5.7281 9.5916 6.17913 9.61307 6.28558 9.88179H4.87802C4.77781 9.74974 4.74663 9.55969 4.71161 9.34704C4.64372 8.93445 4.56762 8.48263 4.46069 7.85889H5.98945Z" fill="#C93D3D"/>
<path d="M5.88972 8.52539C5.79976 9.12179 5.72846 9.59405 5.72846 9.59405C5.72846 9.59405 6.17949 9.61558 6.28594 9.88425H4.87839C4.77812 9.75219 4.74699 9.56221 4.71197 9.3495C4.67077 9.09918 4.62651 8.83418 4.57422 8.52539H5.88972Z" fill="#210E0E"/>
<path d="M5.92806 4.54834C6.04824 4.85509 6.16728 5.16711 6.28482 5.48429C6.51115 6.0949 6.72086 6.69472 6.91546 7.28255C6.91546 7.28255 4.58929 8.03325 1.86792 7.45316C1.86792 7.45316 2.00159 5.2275 2.88879 4.71943L5.92806 4.54834Z" fill="#C93D3D"/>
<path d="M3.11469 4.71283L3.11955 4.70947L2.88879 4.72243C2.00153 5.23049 1.86792 7.45615 1.86792 7.45615C2.90084 7.67636 3.87643 7.70461 4.68992 7.65519C2.57065 7.40446 3.11469 4.71283 3.11469 4.71283Z" fill="#A02020"/>
<path d="M3.84065 8.16527C2.49342 8.16527 1.75334 7.88161 1.70464 7.86236C1.48017 7.77337 1.37037 7.51928 1.45936 7.29487C1.54812 7.07112 1.80119 6.96138 2.025 7.04887C2.05535 7.06027 3.76844 7.68797 6.79848 6.86357C7.03158 6.80024 7.2717 6.93769 7.33509 7.17061C7.39848 7.40354 7.26103 7.64377 7.02805 7.70716C5.74547 8.05613 4.67627 8.16527 3.84065 8.16527Z" fill="white"/>
<path d="M6.45645 5.66162C6.40799 5.66204 6.35894 5.67272 6.31348 5.69766C4.50209 6.69406 2.21796 5.83637 2.19505 5.82756C2.16267 5.81508 2.12944 5.80987 2.09652 5.80873L1.91919 6.36195C1.93712 6.37376 1.95631 6.3842 1.97712 6.39223C2.04195 6.4173 3.02575 6.78899 4.25741 6.78899C4.999 6.78899 5.83048 6.65424 6.60523 6.22804C6.64511 6.20609 6.67738 6.17604 6.70263 6.14156L6.45645 5.66162Z" fill="#210E0E"/>
<path d="M4.94321 6.59197C4.95011 6.71557 4.85547 6.82135 4.73194 6.82819L4.45638 6.8436C4.33278 6.8505 4.22699 6.75587 4.22009 6.63227L4.20474 6.35671C4.19785 6.23311 4.29242 6.12738 4.41602 6.12048L4.69158 6.10513C4.81518 6.09824 4.92096 6.19281 4.92786 6.31641L4.94321 6.59197ZM4.8063 5.97692L4.2878 6.00582C4.1642 6.01266 4.06963 6.11845 4.07653 6.24204L4.10543 6.76048C4.11233 6.88408 4.21812 6.97871 4.34165 6.97182L4.86015 6.94291C4.98369 6.93602 5.07832 6.83023 5.07143 6.70663L5.04252 6.18819C5.03562 6.06459 4.92984 5.97002 4.8063 5.97692Z" fill="#EA7A15"/>
<path d="M5.46916 2.25043C5.48301 2.31592 5.51203 2.41247 5.58034 2.50704C5.71287 2.69049 5.84295 2.68917 6.02394 2.84887C6.07539 2.89427 6.29404 3.09259 6.341 3.39939C6.37422 3.61661 6.30747 3.79646 6.2652 3.88761C6.55083 3.97984 6.66028 4.27699 6.56726 4.4548C6.49626 4.59052 6.3007 4.66914 6.09914 4.62038L5.30298 2.1167L5.46916 2.25043Z" fill="white"/>
<path d="M5.74068 3.14476C5.70337 3.03927 5.61312 2.97672 5.57816 2.72593C5.53132 2.39051 5.34955 2.1727 5.30284 2.12155C4.93828 1.74746 4.38967 1.54038 3.80551 1.61007C2.84491 1.72473 2.1528 2.54344 2.25966 3.43873C2.37061 4.36844 3.32971 4.9336 4.19243 4.85222C4.9005 4.78541 5.52334 4.28502 5.77192 3.57864C5.78877 3.5026 5.80202 3.39129 5.77564 3.26302C5.76658 3.21882 5.75411 3.1793 5.74068 3.14476Z" fill="#EAAAA0"/>
<path d="M3.82622 3.80924C3.85707 4.06774 3.67253 4.30235 3.41392 4.33321C3.15542 4.36406 2.9208 4.17946 2.89002 3.92096C2.8591 3.66241 3.0437 3.42779 3.3022 3.39701C3.56075 3.36609 3.79537 3.55069 3.82622 3.80924Z" fill="#EA9292"/>
<path d="M5.92461 3.45768C5.95546 3.71617 5.77092 3.95079 5.51231 3.98165C5.25381 4.01249 5.0192 3.82796 4.98841 3.5694C4.95749 3.31085 5.14209 3.07623 5.40059 3.04544C5.65914 3.01453 5.89376 3.19912 5.92461 3.45768Z" fill="#EA9292"/>
<path d="M6.26435 3.89116C6.13721 3.572 5.81362 3.49368 5.78567 3.48744C5.6941 3.53878 5.3627 3.70999 4.96798 3.60882C4.80876 3.56804 4.68804 3.49542 4.60756 3.43569L4.37884 3.4866L3.55815 4.04109C2.31407 4.45236 2.35569 3.12133 2.35569 3.12133C2.31407 3.11167 2.29182 3.11023 2.28907 3.11689C2.28697 3.12193 2.2959 3.13158 2.31593 3.14586C2.20787 3.26903 2.04169 3.49122 1.94808 3.81008C1.90982 3.94046 1.85093 4.141 1.88595 4.36936C1.96361 4.87587 2.44739 5.15563 2.54142 5.20774C2.63671 5.25254 2.71119 5.26831 2.71119 5.26831C2.71995 5.33601 2.74448 5.45434 2.82448 5.57481C2.85518 5.62105 3.01026 5.84246 3.30502 5.88522C3.63167 5.93259 3.85914 5.72126 3.88648 5.69499C3.89578 5.70363 4.10693 5.89415 4.37314 5.81409C4.58609 5.75005 4.67197 5.56168 4.6842 5.53362C5.4448 5.972 5.72096 5.28708 5.72096 5.28708C6.37439 5.15712 6.15215 4.56948 6.15215 4.56948C6.31113 4.37872 6.3546 4.11773 6.26435 3.89116Z" fill="white"/>
<path d="M3.68764 3.32984C3.69794 3.41624 3.65925 3.49188 3.6012 3.49886C3.54314 3.50579 3.48774 3.44137 3.47743 3.3549C3.46712 3.26844 3.50581 3.1928 3.56386 3.18582C3.62192 3.17889 3.67732 3.24337 3.68764 3.32984Z" fill="#210E0E"/>
<path d="M5.17445 3.08814C5.18476 3.17454 5.14607 3.25024 5.08801 3.25716C5.02995 3.26409 4.97456 3.19967 4.96425 3.11321C4.95394 3.02674 4.99263 2.9511 5.05068 2.94412C5.10874 2.9372 5.16414 3.00167 5.17445 3.08814Z" fill="#210E0E"/>
<path d="M3.26447 3.17028C3.24984 3.17202 3.23448 3.16956 3.22039 3.16224C3.18309 3.14293 3.16822 3.09741 3.18723 3.05987C3.19364 3.0471 3.35083 2.74773 3.76258 2.81502C3.80432 2.82185 3.83262 2.86119 3.82579 2.90293C3.81895 2.94467 3.77955 2.9728 3.73787 2.96614C3.4397 2.91726 3.3281 3.1211 3.32348 3.1298C3.31125 3.15295 3.28876 3.1674 3.26447 3.17028Z" fill="#FCF7F7"/>
<path d="M5.35829 2.81769C5.37275 2.81463 5.38642 2.80732 5.39739 2.79586C5.42654 2.76552 5.42594 2.71766 5.39578 2.68828C5.38558 2.67826 5.1403 2.44558 4.77221 2.64204C4.73491 2.66195 4.72081 2.70831 4.74072 2.74567C4.76063 2.78291 4.80705 2.79688 4.84435 2.77715C5.11086 2.63466 5.28225 2.79166 5.28939 2.79838C5.30846 2.81637 5.33437 2.82279 5.35829 2.81769Z" fill="#FCF7F7"/>
<path d="M2.56447 4.83657C2.5403 4.83945 2.51457 4.83939 2.48741 4.83537C2.383 4.81972 2.26492 4.74674 2.23661 4.61876C2.2173 4.53169 2.24135 4.40857 2.33976 4.34404C2.35895 4.33145 2.45976 4.27112 2.55793 4.32623C2.61298 4.35717 2.66408 4.42398 2.65376 4.50356C2.64531 4.56947 2.59925 4.62476 2.53646 4.64437C2.46983 4.66512 2.39829 4.64335 2.35367 4.58896C2.3403 4.57259 2.3427 4.54848 2.35901 4.53504C2.37532 4.52155 2.39943 4.52401 2.41286 4.54038C2.43727 4.57013 2.47787 4.5826 2.51361 4.57127C2.55271 4.55909 2.574 4.52359 2.57784 4.49378C2.58438 4.44329 2.5448 4.40665 2.52045 4.39298C2.45976 4.35897 2.38954 4.40293 2.3818 4.40809C2.31673 4.45067 2.29712 4.53798 2.31139 4.60221C2.33178 4.6942 2.42276 4.7483 2.49868 4.75957C2.63631 4.78026 2.73118 4.65714 2.74156 4.64305C2.77682 4.59513 2.79481 4.54332 2.79499 4.48893C2.79553 4.36059 2.69166 4.27867 2.67085 4.26356C2.54006 4.16845 2.38492 4.22086 2.36765 4.2271C2.34792 4.23418 2.32579 4.22416 2.31859 4.20425C2.31133 4.1844 2.32159 4.16239 2.34144 4.15519C2.36267 4.14746 2.55313 4.08317 2.71589 4.20161C2.75259 4.22824 2.87223 4.32779 2.87157 4.48923C2.87139 4.53798 2.8594 4.61217 2.80321 4.68845C2.78498 4.71321 2.69874 4.82056 2.56447 4.83657Z" fill="#FCF7F7"/>
<path d="M5.63964 3.90779C5.65895 3.89298 5.68114 3.87991 5.70657 3.86953C5.80426 3.82965 5.94303 3.83217 6.03274 3.92776C6.09379 3.99283 6.13595 4.11097 6.08426 4.21664C6.07418 4.23727 6.01823 4.3406 5.90573 4.34329C5.84258 4.34485 5.76462 4.31343 5.73283 4.23979C5.70645 4.17874 5.71778 4.10767 5.7618 4.05874C5.80852 4.00692 5.88114 3.98911 5.94729 4.01316C5.96714 4.02042 5.97739 4.04236 5.9702 4.06221C5.96306 4.08212 5.94105 4.09232 5.9212 4.08512C5.88504 4.07199 5.84372 4.08194 5.81877 4.10995C5.79137 4.14042 5.79119 4.18185 5.80312 4.20938C5.82327 4.25616 5.87598 4.26743 5.90393 4.26677C5.97343 4.26509 6.01139 4.19145 6.01541 4.18305C6.04966 4.11319 6.02189 4.02809 5.97691 3.98012C5.91244 3.91145 5.8066 3.91139 5.73547 3.94042C5.6066 3.99289 5.58783 4.14719 5.58609 4.16458C5.58027 4.22377 5.59125 4.27757 5.61883 4.3244C5.6839 4.43505 5.81499 4.4525 5.8406 4.4549C6.00162 4.46989 6.10831 4.34563 6.11994 4.33142C6.13331 4.31529 6.15742 4.31259 6.17379 4.32608C6.19017 4.33946 6.19256 4.36356 6.17919 4.37994C6.16486 4.39739 6.03388 4.54995 5.83352 4.53112C5.78837 4.52692 5.63472 4.50239 5.55287 4.3632C5.5281 4.32122 5.50057 4.2513 5.50993 4.15703C5.51299 4.12644 5.53236 3.99013 5.63964 3.90779Z" fill="#FCF7F7"/>
<path d="M4.00058 5.29608C3.99926 5.31575 3.99536 5.33626 3.98817 5.35731C3.96022 5.43821 3.88448 5.52144 3.77827 5.52504C3.70601 5.52744 3.61144 5.48996 3.57461 5.40198C3.56742 5.38483 3.53437 5.29548 3.59284 5.22543C3.62571 5.18615 3.68652 5.15539 3.74841 5.17542C3.79968 5.19197 3.83692 5.23683 3.84322 5.28984C3.84988 5.34597 3.82193 5.39982 3.77191 5.42729C3.75686 5.43551 3.73797 5.43005 3.72976 5.415C3.72142 5.4 3.72694 5.38117 3.74199 5.3729C3.76928 5.35785 3.78529 5.32738 3.78157 5.29722C3.77767 5.26423 3.75254 5.24192 3.72934 5.23449C3.69012 5.22177 3.65503 5.24786 3.64046 5.26525C3.60436 5.30855 3.62895 5.37104 3.63195 5.378C3.65623 5.43617 3.72292 5.46477 3.77617 5.46297C3.85251 5.46039 3.90913 5.39593 3.92946 5.33704C3.9664 5.23041 3.88238 5.1365 3.87266 5.12618C3.83974 5.09098 3.80106 5.06891 3.75776 5.0607C3.65557 5.0412 3.57485 5.11179 3.55968 5.12612C3.46445 5.21626 3.48316 5.34771 3.48562 5.36234C3.48832 5.37914 3.47704 5.39527 3.46007 5.39809C3.44316 5.4009 3.42715 5.38945 3.42439 5.37254C3.42139 5.35449 3.39842 5.19311 3.51698 5.08102C3.54367 5.05578 3.64076 4.97518 3.7694 4.99971C3.8082 5.00708 3.86553 5.02765 3.918 5.08378C3.93503 5.10195 4.00778 5.18669 4.00058 5.29608Z" fill="#FCF7F7"/>
<path d="M4.10532 4.54766C4.1112 4.56649 4.11983 4.5855 4.13183 4.60427C4.178 4.6763 4.2712 4.73939 4.37524 4.71786C4.44607 4.70322 4.52919 4.64451 4.54418 4.5503C4.54718 4.53195 4.55827 4.43738 4.48499 4.38304C4.44379 4.35258 4.37746 4.33699 4.32199 4.37105C4.27605 4.39918 4.25045 4.45159 4.25674 4.5046C4.26352 4.56074 4.3034 4.60643 4.35845 4.62137C4.375 4.6258 4.39204 4.61603 4.39653 4.59954C4.40109 4.58298 4.39126 4.56595 4.3747 4.56146C4.34466 4.5533 4.32187 4.52739 4.31845 4.49723C4.31443 4.46424 4.33368 4.43666 4.35443 4.42394C4.38958 4.40236 4.42982 4.41945 4.44805 4.43294C4.49332 4.46652 4.48415 4.53309 4.48289 4.54053C4.47299 4.60277 4.41488 4.64625 4.36265 4.65705C4.28787 4.67252 4.21764 4.62316 4.18412 4.57075C4.12313 4.47582 4.18268 4.36475 4.18964 4.3524C4.21339 4.31042 4.24577 4.27996 4.28589 4.26173C4.38064 4.21873 4.47575 4.26832 4.49386 4.2787C4.60757 4.34388 4.62034 4.47606 4.62142 4.49087C4.62274 4.50784 4.63749 4.52086 4.65464 4.5196C4.67173 4.51834 4.68457 4.50346 4.68337 4.48637C4.68199 4.46814 4.66634 4.30586 4.52469 4.22484C4.49278 4.20655 4.3795 4.15114 4.26028 4.20523C4.22424 4.22149 4.17339 4.25501 4.1356 4.32188C4.12331 4.34358 4.07258 4.44301 4.10532 4.54766Z" fill="#FCF7F7"/>
<path d="M5.03027 5.37205C5.01468 5.35999 4.99986 5.3453 4.98643 5.32755C4.93498 5.25918 4.90823 5.14986 4.9646 5.05978C5.00298 4.9985 5.08688 4.94098 5.18043 4.95964C5.19866 4.96323 5.29126 4.98572 5.31662 5.07334C5.3309 5.12257 5.32244 5.19016 5.27123 5.23034C5.22889 5.26362 5.17084 5.26944 5.12334 5.24503C5.07309 5.21918 5.04406 5.16587 5.04922 5.10908C5.05078 5.09199 5.06589 5.07945 5.08292 5.08095C5.10001 5.08245 5.11261 5.09757 5.11105 5.11466C5.10823 5.14572 5.1246 5.17607 5.15171 5.1898C5.18121 5.20497 5.21378 5.19658 5.23291 5.18152C5.26535 5.15604 5.26331 5.11238 5.25701 5.09061C5.2413 5.03646 5.17569 5.02194 5.16832 5.02056C5.10649 5.00815 5.0455 5.04749 5.01719 5.09271C4.97671 5.15748 4.99854 5.24041 5.03602 5.29019C5.10385 5.38038 5.22865 5.36311 5.24262 5.36089C5.29024 5.35322 5.33012 5.33349 5.36118 5.30218C5.4344 5.2283 5.42097 5.12191 5.41755 5.10134C5.39602 4.97199 5.27656 4.91412 5.26301 4.90788C5.2476 4.90074 5.24052 4.88239 5.24766 4.8668C5.25479 4.85121 5.27321 4.84431 5.2888 4.85145C5.30541 4.85907 5.4521 4.93013 5.47878 5.09115C5.48484 5.12737 5.49743 5.25295 5.40526 5.3459C5.37743 5.37397 5.32832 5.41001 5.25246 5.42218C5.22787 5.42614 5.11698 5.43915 5.03027 5.37205Z" fill="#FCF7F7"/>
<path d="M0.992695 2.40645C1.01898 2.62671 0.861813 2.82642 0.641555 2.85276C0.421409 2.87904 0.221646 2.72187 0.195298 2.50162C0.169016 2.28141 0.326239 2.08164 0.546385 2.05537C0.766651 2.02908 0.966413 2.18624 0.992695 2.40645Z" fill="white"/>
<path d="M5.30578 1.16246C5.17151 0.954546 4.83076 0.492419 4.21091 0.244263C3.06986 -0.212467 2.01667 0.46975 1.91286 0.539495C1.91286 0.539495 1.08774 2.0418 0.822192 2.22573C0.556586 2.40966 0.863991 2.57595 1.67742 2.02219C1.66405 2.13199 1.65074 2.24186 1.63742 2.35166C2.10003 2.34489 2.73265 2.28678 3.44881 2.06873C4.274 1.81757 4.89726 1.4493 5.30578 1.16246Z" fill="#C93D3D"/>
<path d="M1.96386 0.966797C1.76764 1.25573 1.71115 1.48524 1.69772 1.6456C1.69046 1.73261 1.67691 2.0261 1.67721 2.02047C1.66383 2.13033 1.65052 2.24014 1.63721 2.34994C2.05508 2.34382 2.61202 2.29537 3.24368 2.12547C1.98917 2.16643 1.96386 0.966797 1.96386 0.966797Z" fill="#A02020"/>
<path d="M2.33342 0.490454C2.31315 0.320619 2.06583 0.800198 2.05851 0.814411C2.03261 0.833842 1.99752 0.862687 1.95842 0.901368C1.98049 0.878879 2.15075 0.699509 2.07962 0.585506C2.00364 0.463648 1.99255 0.865686 1.95603 0.903766C1.95615 0.903646 1.95627 0.903527 1.95627 0.903527C1.95788 0.904366 1.79609 1.17969 1.72454 1.38598C1.67549 1.52739 1.63393 1.73699 1.67753 2.02568C1.68448 1.81447 1.7216 1.51612 1.85851 1.19018C1.92004 1.0438 1.99027 0.918999 2.05827 0.815491C2.06301 0.813032 2.35381 0.661428 2.33342 0.490454Z" fill="#A02020"/>
<path d="M1.99587 3.56698C1.79185 3.59133 1.57962 3.51889 1.43251 3.35397C1.19323 3.08573 1.21668 2.67433 1.48492 2.43505C1.55269 2.3746 3.17092 0.957335 5.52132 1.14504C5.87958 1.17371 6.1468 1.48735 6.1182 1.84573C6.08959 2.20393 5.77613 2.47103 5.41757 2.44261C3.61583 2.2985 2.36384 3.39529 2.35143 3.40638C2.24816 3.49856 2.1236 3.55175 1.99587 3.56698Z" fill="white"/>
<path d="M4.29956 3.61084C4.29956 3.61084 4.47197 3.83897 4.68619 3.61084C4.68619 3.61084 4.67053 4.19045 4.4929 4.19045C4.31521 4.19045 4.29956 3.61084 4.29956 3.61084Z" fill="#CC4C4C"/>
<path d="M4.22764 3.41938C4.22764 3.41938 4.03861 3.24942 3.75819 3.58597C3.47771 3.92258 3.2229 3.85086 3.2229 3.85086C3.41774 4.04828 3.70614 4.11251 3.95075 4.01434C4.25942 3.89056 4.33894 3.5723 4.34596 3.54207C4.34596 3.54207 4.31855 3.48906 4.22764 3.41938Z" fill="white"/>
<path d="M3.89746 3.90128C3.68295 3.97948 3.44127 3.96287 3.24121 3.86458C3.43551 4.04809 3.71299 4.10668 3.95017 4.01151C4.25878 3.88767 4.33836 3.56941 4.34532 3.53925C4.34532 3.53925 4.33902 3.52749 4.32367 3.5083C4.27155 3.62038 4.15035 3.80911 3.89746 3.90128Z" fill="#F4EDED"/>
<path d="M4.64463 3.36096C4.64463 3.36096 4.75534 3.13212 5.14226 3.33757C5.52919 3.54303 5.73788 3.38027 5.73788 3.38027C5.63227 3.63676 5.38958 3.80528 5.12601 3.80702C4.79348 3.80912 4.59941 3.54459 4.58154 3.51928C4.58154 3.51928 4.58682 3.45985 4.64463 3.36096Z" fill="white"/>
<path d="M5.16541 3.68496C4.8619 3.69149 4.67084 3.49773 4.61189 3.42787C4.58478 3.48808 4.58154 3.5228 4.58154 3.5228C4.59947 3.54811 4.79348 3.81263 5.12601 3.81047C5.38958 3.8088 5.63227 3.64028 5.73794 3.38379C5.73794 3.38379 5.73752 3.38403 5.73752 3.38409C5.60283 3.56472 5.39114 3.6801 5.16541 3.68496Z" fill="#F4EDED"/>
<path d="M4.68584 3.35687C4.70105 3.42837 4.61231 3.50783 4.48767 3.53434C4.36308 3.56085 4.24968 3.52439 4.23447 3.45289C4.21926 3.38139 4.308 3.30193 4.43265 3.27542C4.55723 3.24891 4.67057 3.28538 4.68584 3.35687Z" fill="#D85B5B"/>
<path d="M4.39833 3.40398C4.4065 3.42525 4.38661 3.45256 4.35386 3.46514C4.32117 3.47771 4.28809 3.4707 4.27993 3.44948C4.27178 3.42827 4.29168 3.40096 4.32442 3.38838C4.35711 3.37581 4.39017 3.38277 4.39833 3.40398Z" fill="#EA9292"/>
<path d="M4.47602 3.35158C4.47767 3.36533 4.46782 3.37787 4.454 3.37947C4.44025 3.38118 4.42771 3.37133 4.42606 3.35757C4.42439 3.3437 4.43425 3.33122 4.44807 3.32956C4.46187 3.32785 4.47442 3.33775 4.47602 3.35158Z" fill="#EA9292"/>
<path d="M6.90895 1.25977H9.17383V3.90528H6.90895V1.25977Z" fill="#1652A8"/>
<path d="M6.90895 1.73584H9.17383V1.86549H6.90895V1.73584Z" fill="#0B4489"/>
<path d="M6.78715 1.25977H9.28735V1.72897H6.78715V1.25977Z" fill="#1652A8"/>
<path d="M7.88582 1.16455H8.19971V3.94056H7.88582V1.16455Z" fill="#18CFE8"/>
<path d="M6.88888 2.43164H9.19946V2.74552H6.88888V2.43164Z" fill="#18CFE8"/>
<path d="M8.70718 0.947669H8.48811L8.64091 0.817295C8.67582 0.78749 8.68001 0.735016 8.65015 0.700054L8.55366 0.586951C8.52385 0.551988 8.47138 0.54785 8.43642 0.577655L8.23516 0.749349V0.551928C8.23516 0.505931 8.19792 0.46875 8.15198 0.46875H8.00331C7.95738 0.46875 7.92013 0.505931 7.92013 0.551928V0.804161L7.68421 0.56824C7.65171 0.535736 7.59906 0.535736 7.56655 0.56824L7.46143 0.673367C7.42892 0.705871 7.42892 0.758524 7.46143 0.791028L7.61807 0.947669H7.45525C7.40931 0.947669 7.37207 0.984911 7.37207 1.03085V1.17951C7.37207 1.22545 7.40931 1.26269 7.45525 1.26269H8.07078C8.07438 1.26269 8.07774 1.26209 8.08121 1.26167C8.08469 1.26209 8.08805 1.26269 8.09165 1.26269H8.70718C8.75312 1.26269 8.79036 1.22545 8.79036 1.17951V1.03085C8.79036 0.984911 8.75312 0.947669 8.70718 0.947669Z" fill="#18CFE8"/>
<path d="M9.86444 3.36481C9.82174 3.29428 9.80507 3.22801 9.798 3.18604C9.79086 3.22801 9.77419 3.29428 9.73149 3.36481C9.69437 3.42609 9.65143 3.46771 9.62061 3.49332C9.65143 3.51887 9.69437 3.56055 9.73149 3.62178C9.77419 3.6923 9.79086 3.75857 9.798 3.80055C9.80507 3.75857 9.82174 3.6923 9.86444 3.62178C9.90156 3.56055 9.9445 3.51887 9.97539 3.49332C9.9445 3.46771 9.90156 3.42609 9.86444 3.36481Z" fill="#DDBC31"/>
<path d="M6.97504 0.17877C6.93234 0.108246 6.91567 0.0419789 6.90859 0C6.9014 0.0419789 6.88478 0.108246 6.84209 0.17877C6.80496 0.240059 6.76203 0.281678 6.7312 0.307286C6.76203 0.332833 6.80496 0.374512 6.84209 0.435741C6.88478 0.506266 6.9014 0.572532 6.90859 0.614511C6.91567 0.572532 6.93234 0.506266 6.97504 0.435741C7.01216 0.374512 7.0551 0.332833 7.08598 0.307286C7.0551 0.281678 7.01216 0.240059 6.97504 0.17877Z" fill="#DDBC31"/>
<path d="M9.95264 0.836438C9.9208 0.783844 9.90838 0.734429 9.90305 0.703125C9.89777 0.734429 9.88535 0.783844 9.85351 0.836438C9.8258 0.882135 9.79378 0.913199 9.77075 0.93227C9.79378 0.95134 9.8258 0.982405 9.85351 1.0281C9.88535 1.0807 9.89777 1.13011 9.90305 1.16141C9.90838 1.13011 9.9208 1.0807 9.95264 1.0281C9.98035 0.982405 10.0124 0.95134 10.0353 0.93227C10.0124 0.913199 9.98035 0.882135 9.95264 0.836438Z" fill="#DDBC31"/>
<path d="M6.44922 0.426315C6.44922 0.461877 6.42037 0.490723 6.38481 0.490723C6.34925 0.490723 6.3204 0.461877 6.3204 0.426315C6.3204 0.390753 6.34925 0.361907 6.38481 0.361907C6.42037 0.361907 6.44922 0.390753 6.44922 0.426315Z" fill="#DDBC31"/>
<path d="M6.52979 0.867555C6.52979 0.926385 6.48205 0.974121 6.42322 0.974121C6.36439 0.974121 6.31665 0.926385 6.31665 0.867555C6.31665 0.808724 6.36439 0.760988 6.42322 0.760988C6.48205 0.760988 6.52979 0.808724 6.52979 0.867555Z" fill="#DDBC31"/>
<path d="M9.83301 1.50077C9.83301 1.54563 9.79661 1.58203 9.75175 1.58203C9.70683 1.58203 9.67049 1.54563 9.67049 1.50077C9.67049 1.45591 9.70683 1.41951 9.75175 1.41951C9.79661 1.41951 9.83301 1.45591 9.83301 1.50077Z" fill="#DDBC31"/>
<path d="M9.63159 3.18246C9.63159 3.22491 9.59723 3.25928 9.55483 3.25928C9.51249 3.25928 9.47819 3.22491 9.47819 3.18246C9.47819 3.14006 9.51249 3.10569 9.55483 3.10569C9.59723 3.10569 9.63159 3.14006 9.63159 3.18246Z" fill="#DDBC31"/>
<path d="M9.94287 2.92033C9.94287 2.95385 9.9157 2.98096 9.88224 2.98096C9.84866 2.98096 9.82149 2.95385 9.82149 2.92033C9.82149 2.8868 9.84866 2.8597 9.88224 2.8597C9.9157 2.8597 9.94287 2.8868 9.94287 2.92033Z" fill="#DDBC31"/>
<path d="M9.58398 0.611859C9.58398 0.666371 9.53979 0.710449 9.48527 0.710449C9.43082 0.710449 9.38656 0.666371 9.38656 0.611859C9.38656 0.557286 9.43082 0.513148 9.48527 0.513148C9.53979 0.513148 9.58398 0.557286 9.58398 0.611859Z" fill="#DDBC31"/>
</svg>
