<svg width="9" height="10" viewBox="0 0 9 10" fill="none" xmlns="http://www.w3.org/2000/svg">
<path d="M7.16155 4.71531C7.07273 4.67105 7.00683 4.59633 6.96539 4.50439C6.9456 4.58649 6.92563 4.67489 6.8533 4.7381C6.85049 4.74056 6.84719 4.74331 6.84317 4.74613C6.72563 4.83057 6.5769 4.81606 6.44227 4.79501C6.08761 4.73948 6.06014 4.69534 5.94056 4.71483C5.80653 4.73666 5.70764 4.81372 5.64725 4.87207C5.56767 4.95015 5.48401 5.06331 5.47556 5.20352C5.45505 5.54361 5.88761 5.82241 6.18128 5.90343C6.24869 5.92202 6.79369 6.06253 7.26014 5.71219C7.60251 5.45504 7.78026 5.02481 7.73726 4.58409C7.56623 4.74577 7.3423 4.80544 7.16155 4.71531Z" fill="#A02020"/>
<path d="M7.64818 3.78818C7.898 3.91276 7.9935 4.22852 7.86145 4.49345C7.72932 4.7584 7.41975 4.87226 7.16991 4.74773C6.92012 4.62322 6.82462 4.30746 6.9567 4.04248C7.08877 3.77751 7.39837 3.66373 7.64818 3.78818Z" fill="#4C2626"/>
<path d="M6.74852 4.36043C6.80699 4.32871 6.87986 4.32661 6.94241 4.36115C7.39422 4.61074 7.72711 4.56133 7.74102 4.55905C7.85029 4.54166 7.95422 4.6153 7.97275 4.72439C7.99128 4.83347 7.91943 4.93704 7.81053 4.95653C7.79122 4.96001 7.33227 5.03755 6.74726 4.71431C6.64975 4.66046 6.61437 4.5377 6.66828 4.44019C6.68759 4.40517 6.71584 4.37818 6.74852 4.36043Z" fill="white"/>
<path d="M8.21509 4.75529C8.21886 4.75235 8.5761 4.47865 8.53149 4.40087C8.51607 4.37394 8.45766 4.38072 8.43476 4.38306C8.29557 4.39703 8.06354 4.38396 7.65203 4.27565C7.64141 4.27205 7.62486 4.26642 7.60465 4.25946C6.92681 4.02456 6.72999 3.8179 6.3204 3.74528C6.13395 3.71224 5.95998 3.69778 5.80268 3.69466C5.80268 3.69466 3.10475 3.64069 2.4166 3.97209C2.41624 3.97226 2.41606 3.97238 2.4157 3.97256C1.92065 4.12525 1.53258 4.43169 1.24029 4.66282C0.873034 4.95325 0.179903 5.50138 0.0288388 6.45196C-0.0781474 7.1253 0.139962 7.66665 0.236454 7.87276C0.540501 8.5226 1.03819 8.83894 1.40641 9.073C1.84059 9.34898 2.49786 9.78047 3.34481 9.64601C3.96214 9.54802 4.39345 9.22796 4.6127 9.0342C4.6127 9.0342 5.74583 8.48242 5.50925 6.55799H5.50937C5.67146 6.17148 5.98319 5.50503 6.44226 4.95043C6.64531 4.7051 6.85287 4.51115 7.13671 4.48459C7.27866 4.47133 7.39848 4.50378 7.47626 4.53262C7.63266 4.63433 7.84135 4.774 8.08381 4.94857C8.2735 5.08513 8.39128 5.1764 8.41958 5.15085C8.44039 5.13208 8.41587 5.04698 8.21509 4.75529Z" fill="#5E3636"/>
<path d="M6.97649 4.00388C6.97649 4.00388 6.76851 4.6786 7.91076 4.33888C7.91076 4.33888 7.33253 3.86044 6.97649 4.00388Z" fill="#4C2626"/>
<path d="M6.59345 7.87354C6.46277 8.741 6.3321 9.60624 6.3321 9.60624C6.3321 9.60624 6.78313 9.62771 6.88958 9.89644H5.48203C5.38182 9.76439 5.35063 9.57434 5.31561 9.36169C5.24773 8.94909 5.17162 8.49734 5.0647 7.87354H6.59345Z" fill="#C93D3D"/>
<path d="M6.49372 8.54004C6.40377 9.13644 6.33246 9.6087 6.33246 9.6087C6.33246 9.6087 6.78344 9.63023 6.88994 9.8989H5.48239C5.38212 9.76684 5.351 9.57686 5.31597 9.36415C5.27477 9.11383 5.23052 8.84882 5.17822 8.54004H6.49372Z" fill="#210E0E"/>
<path d="M4.93085 7.87354C4.80018 8.741 4.66956 9.60624 4.66956 9.60624C4.66956 9.60624 5.12054 9.62771 5.22698 9.89644H3.81943C3.71922 9.76439 3.68804 9.57434 3.65301 9.36169C3.58513 8.94909 3.50903 8.49734 3.4021 7.87354H4.93085Z" fill="#C93D3D"/>
<path d="M4.83112 8.54004C4.74123 9.13644 4.66987 9.6087 4.66987 9.6087C4.66987 9.6087 5.1209 9.63023 5.22735 9.8989H3.81979C3.71952 9.76684 3.6884 9.57686 3.65338 9.36415C3.61218 9.11383 3.56792 8.84882 3.51562 8.54004H4.83112Z" fill="#210E0E"/>
<path d="M6.26127 2.41569C6.26726 2.48237 6.28465 2.58162 6.34127 2.68369C6.45107 2.88153 6.58043 2.89563 6.74126 3.07566C6.7869 3.12681 6.98054 3.34966 6.9908 3.65988C6.99806 3.87949 6.91044 4.05017 6.85767 4.13562C7.13041 4.26108 7.20381 4.56915 7.09041 4.7346C7.00381 4.86096 6.80027 4.91589 6.60591 4.84357L6.11206 2.26318C6.16184 2.31404 6.21155 2.36483 6.26127 2.41569Z" fill="white"/>
<path d="M6.42834 3.32787C6.40381 3.21872 6.32159 3.14586 6.31661 2.89272C6.30984 2.55413 6.15517 2.31635 6.11488 2.25998C5.79721 1.84529 5.27704 1.57471 4.68867 1.57471C3.72124 1.57471 2.93701 2.30562 2.93701 3.20727C2.93701 4.14358 3.82235 4.81842 4.68867 4.83983C5.39961 4.8574 6.07739 4.43437 6.40795 3.76235C6.43367 3.68888 6.46006 3.57992 6.44903 3.44948C6.44525 3.40451 6.43763 3.36379 6.42834 3.32787Z" fill="#EAAAA0"/>
<path d="M4.4458 3.76198C4.4458 4.02236 4.23471 4.2334 3.97438 4.2334C3.71399 4.2334 3.50289 4.02236 3.50289 3.76198C3.50289 3.50159 3.71399 3.29049 3.97438 3.29049C4.23471 3.29049 4.4458 3.50159 4.4458 3.76198Z" fill="#EA9292"/>
<path d="M6.57349 3.65944C6.57349 3.91983 6.36239 4.13086 6.10206 4.13086C5.84167 4.13086 5.63058 3.91983 5.63058 3.65944C5.63058 3.39905 5.84167 3.18795 6.10206 3.18795C6.36239 3.18795 6.57349 3.39905 6.57349 3.65944Z" fill="#EA9292"/>
<path d="M6.38558 4.57031C6.50576 4.87706 6.6248 5.18908 6.74234 5.50626C6.96867 6.11688 7.17838 6.71669 7.37292 7.30452C7.37292 7.30452 5.04681 8.05522 2.32544 7.47513C2.32544 7.47513 2.45911 5.24947 3.34631 4.74141L6.38558 4.57031Z" fill="#C93D3D"/>
<path d="M3.57221 4.72748L3.57707 4.72412L3.34631 4.73707C2.45905 5.24514 2.32544 7.4708 2.32544 7.4708C3.35836 7.69101 4.33395 7.71926 5.14744 7.66984C3.02817 7.41917 3.57221 4.72748 3.57221 4.72748Z" fill="#A02020"/>
<path d="M4.29817 8.17992C2.95094 8.17992 2.21086 7.89632 2.16216 7.87701C1.93769 7.78802 1.82789 7.53393 1.91688 7.30952C2.00564 7.08577 2.25871 6.97603 2.48252 7.06352C2.51286 7.07498 4.22596 7.70262 7.256 6.87821C7.4891 6.81489 7.72922 6.95234 7.79261 7.18526C7.856 7.41818 7.71855 7.65842 7.48557 7.72181C6.20299 8.07078 5.13379 8.17992 4.29817 8.17992Z" fill="white"/>
<path d="M6.91397 5.68359C6.86551 5.68401 6.81646 5.69469 6.77106 5.71964C4.95961 6.71603 2.67548 5.85835 2.65257 5.84953C2.62013 5.83706 2.58696 5.83184 2.55404 5.8307L2.37671 6.38392C2.39464 6.39574 2.41383 6.40617 2.43464 6.41421C2.49947 6.43927 3.48321 6.81097 4.71493 6.81097C5.45652 6.81097 6.288 6.67621 7.06275 6.25001C7.10263 6.22806 7.1349 6.19802 7.16015 6.16353L6.91397 5.68359Z" fill="#210E0E"/>
<path d="M5.85156 6.55541C5.86512 6.67847 5.77642 6.78917 5.65336 6.80278L5.37906 6.83301C5.256 6.84662 5.1453 6.75787 5.13169 6.63487L5.1014 6.36051C5.08785 6.23751 5.1766 6.12674 5.2996 6.11319L5.5739 6.08291C5.69696 6.06929 5.80773 6.15805 5.82128 6.28111L5.85156 6.55541ZM5.68149 5.94863L5.16539 6.0056C5.04233 6.01922 4.95363 6.12992 4.96719 6.25298L5.02416 6.76908C5.03771 6.89214 5.14848 6.98083 5.27148 6.96728L5.78764 6.91031C5.91063 6.89676 5.99939 6.78599 5.98578 6.66293L5.92886 6.14683C5.91525 6.02378 5.80455 5.93508 5.68149 5.94863Z" fill="#EA7A15"/>
<path d="M4.22241 6.21088C4.22241 6.49004 3.96742 6.71631 3.65294 6.71631C3.33846 6.71631 3.08346 6.49004 3.08346 6.21088C3.08346 5.93172 3.33846 5.70546 3.65294 5.70546C3.96742 5.70546 4.22241 5.93172 4.22241 6.21088Z" fill="#4C2626"/>
<path d="M3.04306 6.34489C3.04306 6.06477 3.20942 5.82405 3.4484 5.71448L3.04768 5.52894C3.04768 5.52894 3.40432 5.13446 3.04768 4.81907C3.04768 4.81907 2.27491 4.43401 1.85884 5.52894C1.55533 6.32756 2.53476 6.53367 3.08732 6.58693C3.0592 6.51142 3.04306 6.43017 3.04306 6.34489Z" fill="#C93D3D"/>
<path d="M3.56809 5.56227C3.5973 5.62206 3.59634 5.69492 3.55916 5.75597C3.29067 6.19681 3.32599 6.53144 3.32761 6.54548C3.34045 6.6554 3.26243 6.75609 3.15262 6.77C3.04288 6.78392 2.94249 6.70775 2.92755 6.59807C2.92492 6.5787 2.86686 6.11681 3.21457 5.54602C3.2725 5.45091 3.39664 5.42074 3.49181 5.47867C3.52593 5.49948 3.55178 5.52887 3.56809 5.56227Z" fill="white"/>
<path d="M6.85836 4.13586C6.76997 3.80386 6.45794 3.68776 6.4309 3.67823C6.33393 3.71841 5.98454 3.84908 5.60457 3.70185C5.45129 3.64248 5.34005 3.55613 5.26724 3.48728L5.03408 3.51073L4.15342 3.96398C2.86941 4.22497 3.06851 2.90821 3.06851 2.90821C3.02827 2.89376 3.00638 2.88962 3.00284 2.89592C3.00014 2.90066 3.00794 2.91133 3.02611 2.92788C2.90419 3.03739 2.71288 3.23835 2.58215 3.54383C2.52866 3.66875 2.44644 3.86089 2.45411 4.09184C2.47121 4.60392 2.91846 4.93903 3.00566 5.00194C3.09495 5.05771 3.16704 5.08224 3.16704 5.08224C3.1677 5.15049 3.17801 5.27091 3.2432 5.40002C3.26821 5.4495 3.39594 5.68776 3.68356 5.76518C4.0023 5.85093 4.25321 5.66803 4.2835 5.64518C4.29171 5.65489 4.47876 5.86905 4.75258 5.82113C4.97159 5.78275 5.07924 5.6059 5.09471 5.57951C5.79797 6.10491 6.15336 5.45753 6.15336 5.45753C6.81758 5.4059 6.66658 4.79606 6.66658 4.79606C6.84703 4.62551 6.92109 4.37154 6.85836 4.13586Z" fill="white"/>
<path d="M4.89037 3.42167C4.89037 3.42167 4.72281 3.23049 4.40443 3.53148C4.08611 3.83247 3.84155 3.73106 3.84155 3.73106C4.01163 3.95019 4.29043 4.04812 4.54494 3.97969C4.86608 3.89328 4.98278 3.58671 4.99327 3.55751C4.99327 3.55751 4.9724 3.50161 4.89037 3.42167Z" fill="white"/>
<path d="M4.50718 3.86262C4.28493 3.91485 4.04691 3.8697 3.85986 3.74844C4.03108 3.95359 4.29968 4.04469 4.54646 3.9783C4.8676 3.89194 4.98424 3.58538 4.99479 3.55617C4.99479 3.55617 4.98994 3.54376 4.97692 3.52295C4.91191 3.62802 4.76919 3.80109 4.50718 3.86262Z" fill="#F4EDED"/>
<path d="M5.31459 3.4179C5.31459 3.4179 5.45162 3.20381 5.81144 3.45365C6.17132 3.70354 6.39789 3.56663 6.39789 3.56663C6.2626 3.80879 6.00161 3.94738 5.73972 3.91787C5.40929 3.88057 5.24797 3.59488 5.23315 3.56765C5.23315 3.56765 5.24545 3.50924 5.31459 3.4179Z" fill="white"/>
<path d="M5.79369 3.79984C5.4915 3.77034 5.32479 3.55535 5.27453 3.479C5.24053 3.53556 5.23315 3.56962 5.23315 3.56962C5.24797 3.5969 5.40929 3.88254 5.73972 3.91984C6.00161 3.94941 6.2626 3.81082 6.39789 3.56866C6.39789 3.56866 6.39747 3.5689 6.39741 3.5689C6.24227 3.73232 6.0184 3.82179 5.79369 3.79984Z" fill="#F4EDED"/>
<path d="M5.353 3.42044C5.35963 3.4933 5.26215 3.56166 5.13523 3.57314C5.00833 3.58475 4.90012 3.53509 4.89343 3.46224C4.88687 3.38949 4.98435 3.32113 5.11126 3.30958C5.23817 3.29804 5.34638 3.34763 5.353 3.42044Z" fill="#D85B5B"/>
<path d="M5.06193 3.42447C5.06751 3.44651 5.04446 3.47133 5.01051 3.47992C4.9765 3.48853 4.94449 3.47764 4.93891 3.4556C4.93334 3.43357 4.95638 3.40875 4.99033 3.40016C5.02429 3.39162 5.05635 3.40244 5.06193 3.42447Z" fill="#EA9292"/>
<path d="M5.14526 3.3879C5.14526 3.40181 5.13399 3.41309 5.12002 3.41309C5.10622 3.41309 5.09489 3.40181 5.09489 3.3879C5.09489 3.37399 5.10622 3.36265 5.12002 3.36265C5.13399 3.36265 5.14526 3.37399 5.14526 3.3879Z" fill="#EA9292"/>
<path d="M4.36523 3.27013C4.36523 3.35721 4.31786 3.42773 4.25939 3.42773C4.20098 3.42773 4.15354 3.35721 4.15354 3.27013C4.15354 3.18306 4.20098 3.11253 4.25939 3.11253C4.31786 3.11253 4.36523 3.18306 4.36523 3.27013Z" fill="#210E0E"/>
<path d="M5.87036 3.21154C5.87036 3.29862 5.82299 3.36914 5.76451 3.36914C5.70604 3.36914 5.65867 3.29862 5.65867 3.21154C5.65867 3.12446 5.70604 3.05394 5.76451 3.05394C5.82299 3.05394 5.87036 3.12446 5.87036 3.21154Z" fill="#210E0E"/>
<path d="M3.96563 3.06833C3.95087 3.06833 3.93594 3.06407 3.92281 3.05513C3.88803 3.03151 3.87867 2.98455 3.902 2.94953C3.90992 2.93759 4.10146 2.65903 4.50236 2.7746C4.54296 2.78629 4.56641 2.82875 4.55471 2.86941C4.54296 2.91001 4.5005 2.93328 4.4599 2.9217C4.16964 2.8378 4.03459 3.02707 4.02902 3.0351C4.01414 3.05663 3.9901 3.06833 3.96563 3.06833Z" fill="#FCF7F7"/>
<path d="M6.08478 2.96447C6.09947 2.96315 6.11392 2.95752 6.12621 2.94744C6.15872 2.92076 6.16376 2.87314 6.13737 2.8404C6.12843 2.82924 5.91242 2.56915 5.52364 2.72058C5.48424 2.73593 5.46475 2.78037 5.4801 2.81977C5.49545 2.85911 5.53989 2.87848 5.57929 2.8633C5.86073 2.75344 6.01233 2.92963 6.01863 2.93719C6.03542 2.95728 6.06043 2.96669 6.08478 2.96447Z" fill="#FCF7F7"/>
<path d="M5.15661 4.03511C5.08746 4.0414 5.02941 4.02527 4.98401 3.98719C4.90947 3.92452 4.90041 3.82521 4.90005 3.82101C4.8979 3.79475 4.91901 3.77232 4.94371 3.7695C4.96986 3.76734 4.99289 3.78671 4.99523 3.81286C4.99745 3.83619 5.0152 3.95211 5.14797 3.93999C5.28068 3.92794 5.27727 3.81076 5.27523 3.78737C5.27289 3.76122 5.2922 3.73801 5.31834 3.73556H5.3184C5.34455 3.73316 5.36764 3.75217 5.37028 3.77825C5.37064 3.78239 5.37969 3.88176 5.31768 3.95678C5.27996 4.00248 5.22575 4.02881 5.15661 4.03511Z" fill="#CC4C4C"/>
<path d="M3.07316 4.63861C3.04882 4.63861 3.02327 4.63549 2.99676 4.62824C2.89499 4.60041 2.78639 4.51394 2.77343 4.3835C2.76462 4.29475 2.80306 4.17529 2.90843 4.12293C2.92894 4.11268 3.03622 4.06476 3.12714 4.13109C3.17817 4.16833 3.22093 4.24071 3.20132 4.31849C3.18513 4.38296 3.13283 4.43244 3.06813 4.44449C2.99952 4.45714 2.93104 4.4271 2.89319 4.36773C2.88186 4.34992 2.88708 4.32623 2.90489 4.3149C2.9227 4.30338 2.94633 4.30872 2.95772 4.32653C2.97841 4.35897 3.01727 4.37619 3.05409 4.36917C3.09433 4.36167 3.11976 4.32893 3.12708 4.29978C3.13949 4.25043 3.10459 4.20941 3.08204 4.19292C3.02585 4.15196 2.95089 4.18728 2.94255 4.19148C2.87292 4.22608 2.84312 4.31046 2.84966 4.37595C2.85895 4.46968 2.94291 4.53415 3.01697 4.55436C3.15118 4.59124 3.25997 4.48023 3.27196 4.46746C3.31262 4.42404 3.33661 4.37469 3.34327 4.32077C3.35898 4.1934 3.26561 4.09972 3.24672 4.08221C3.1281 3.97229 2.96786 4.00593 2.94999 4.01013C2.92954 4.01481 2.90879 4.00227 2.90393 3.98158C2.89913 3.96101 2.91191 3.94038 2.93247 3.93559C2.95448 3.93043 3.15124 3.88917 3.29877 4.02608C3.33205 4.05685 3.43904 4.16983 3.41925 4.33007C3.41331 4.37852 3.39262 4.45073 3.3278 4.51981C3.30675 4.54224 3.2084 4.63861 3.07316 4.63861Z" fill="#FCF7F7"/>
<path d="M6.23526 4.07738C6.25619 4.06497 6.27976 4.05466 6.3062 4.04728C6.40797 4.01927 6.54548 4.03822 6.6232 4.14383C6.6761 4.21561 6.70398 4.33795 6.64011 4.43678C6.6277 4.45603 6.55993 4.55199 6.44785 4.54137C6.385 4.53543 6.31124 4.49501 6.28839 4.41807C6.2695 4.35438 6.28917 4.28518 6.33871 4.24176C6.39118 4.19582 6.46542 4.18677 6.52827 4.21849C6.5471 4.22803 6.55472 4.25106 6.54518 4.26989C6.53577 4.28884 6.51268 4.29633 6.49379 4.28686C6.45948 4.26953 6.41727 4.27451 6.3892 4.29939C6.35838 4.32632 6.35328 4.36746 6.36179 4.39624C6.37631 4.44506 6.42728 4.46251 6.45511 4.46515C6.52437 4.47175 6.57079 4.40308 6.57577 4.39522C6.61799 4.32992 6.60053 4.24218 6.56155 4.18917C6.50566 4.11337 6.40059 4.10071 6.32659 4.12116C6.19238 4.15798 6.15544 4.30899 6.15166 4.32602C6.13883 4.38413 6.14338 4.43882 6.16521 4.4886C6.21673 4.60614 6.34482 4.639 6.37001 4.64446C6.52809 4.6784 6.64875 4.5677 6.66194 4.55498C6.67718 4.54053 6.7014 4.54071 6.7161 4.556C6.73073 4.57124 6.73031 4.59552 6.71508 4.61016C6.69876 4.62575 6.55064 4.7617 6.35388 4.7193C6.30956 4.70977 6.15988 4.66725 6.09511 4.51936C6.0755 4.47468 6.05649 4.402 6.07688 4.30947C6.08353 4.27948 6.11898 4.14641 6.23526 4.07738Z" fill="#FCF7F7"/>
<path d="M4.44128 5.25563C4.43768 5.275 4.43138 5.29491 4.42167 5.31494C4.38436 5.39195 4.29927 5.46565 4.19342 5.45659C4.12134 5.45042 4.03186 5.40202 4.00577 5.31027C4.00068 5.2924 3.97843 5.1998 4.04481 5.13719C4.08206 5.10205 4.1461 5.07872 4.20517 5.10589C4.25417 5.12844 4.28583 5.17743 4.28577 5.23081C4.28571 5.28736 4.25159 5.33743 4.19864 5.35878C4.18275 5.3652 4.16469 5.35752 4.15828 5.34163C4.15174 5.32574 4.15948 5.30769 4.17543 5.30121C4.20433 5.28958 4.22382 5.26115 4.2237 5.23081C4.2237 5.19758 4.2014 5.17246 4.17927 5.16232C4.14179 5.14505 4.10389 5.16676 4.08739 5.18235C4.04637 5.22103 4.06341 5.28604 4.0655 5.29329C4.08272 5.35392 4.14556 5.39021 4.1987 5.39476C4.2748 5.40124 4.33867 5.34391 4.36577 5.2879C4.41507 5.18637 4.34281 5.08316 4.33441 5.07177C4.30586 5.03291 4.27006 5.0064 4.22808 4.99309C4.12889 4.96166 4.04038 5.02217 4.02365 5.03464C3.9184 5.11279 3.9214 5.24556 3.92206 5.26043C3.92278 5.2774 3.90964 5.2921 3.89249 5.29287C3.87534 5.29365 3.86083 5.2804 3.86005 5.26331C3.85927 5.24502 3.85555 5.08202 3.98658 4.98481C4.01609 4.96286 4.12206 4.89438 4.24679 4.93396C4.28451 4.94589 4.33897 4.97312 4.38442 5.035C4.39918 5.05515 4.46137 5.14787 4.44128 5.25563Z" fill="#FCF7F7"/>
<path d="M4.63653 4.53054C4.64012 4.54991 4.64642 4.56982 4.65614 4.58991C4.69344 4.66685 4.77853 4.74055 4.88438 4.7315C4.95647 4.72538 5.04594 4.67692 5.07203 4.58517C5.07712 4.5673 5.09937 4.4747 5.03299 4.4121C4.99575 4.37695 4.9317 4.35362 4.87263 4.38085C4.82363 4.40334 4.79197 4.45234 4.79203 4.50571C4.79209 4.56226 4.82621 4.61239 4.87916 4.63368C4.89506 4.6401 4.91317 4.63242 4.91952 4.61653C4.92606 4.60064 4.91832 4.58259 4.90243 4.57617C4.87347 4.56448 4.85398 4.53611 4.8541 4.50571C4.8541 4.47249 4.87641 4.44742 4.89853 4.43722C4.93602 4.41995 4.97392 4.44172 4.99041 4.45725C5.03143 4.49593 5.0144 4.56094 5.0123 4.5682C4.99509 4.62883 4.93224 4.66511 4.8791 4.66967C4.803 4.67614 4.73913 4.61881 4.71203 4.5628C4.66273 4.46133 4.735 4.35812 4.74339 4.34667C4.77194 4.30781 4.80774 4.28136 4.84972 4.26799C4.94891 4.23656 5.03742 4.29707 5.05416 4.30955C5.1594 4.38769 5.1564 4.52046 5.15575 4.53533C5.15503 4.55231 5.16816 4.567 5.18531 4.56778C5.20246 4.56856 5.21697 4.5553 5.21775 4.53821C5.21859 4.51992 5.22225 4.35692 5.09122 4.25971C5.06171 4.23776 4.95575 4.16928 4.83101 4.20886C4.79329 4.22079 4.73883 4.24802 4.69338 4.30997C4.67862 4.33006 4.61644 4.42277 4.63653 4.53054Z" fill="#FCF7F7"/>
<path d="M5.454 5.45667C5.43997 5.44281 5.42696 5.4265 5.41574 5.40725C5.37275 5.33325 5.35913 5.22159 5.42582 5.13877C5.47116 5.08246 5.56129 5.03532 5.65197 5.06494C5.66966 5.0707 5.75895 5.10398 5.77376 5.194C5.7821 5.24455 5.76567 5.3107 5.71008 5.34452C5.66408 5.37253 5.60573 5.37139 5.56147 5.34159C5.51463 5.30992 5.49215 5.25361 5.50402 5.19778C5.50756 5.18105 5.52405 5.17031 5.54078 5.17391C5.55763 5.17739 5.56831 5.19388 5.56471 5.21067C5.55823 5.24114 5.57089 5.27322 5.59619 5.29007C5.62372 5.30866 5.657 5.30416 5.67781 5.29151C5.71307 5.27004 5.71619 5.22644 5.71253 5.20413C5.70336 5.14848 5.63991 5.12629 5.63271 5.12401C5.5728 5.1044 5.50762 5.13619 5.47415 5.17775C5.4263 5.23724 5.43811 5.32222 5.46942 5.37601C5.52609 5.47364 5.65202 5.4713 5.66624 5.47076C5.71439 5.46878 5.75631 5.45391 5.79086 5.4265C5.87235 5.36186 5.87163 5.25457 5.87068 5.23376C5.86462 5.10279 5.75283 5.03112 5.74012 5.02339C5.72567 5.01445 5.72081 4.99538 5.72975 4.98075C5.73868 4.96605 5.75775 4.96144 5.77238 4.97037C5.78804 4.97991 5.92525 5.06788 5.93268 5.23088C5.93436 5.26764 5.93196 5.39376 5.82942 5.47514C5.79847 5.49973 5.74546 5.52965 5.6687 5.53277C5.64381 5.53379 5.53215 5.53355 5.454 5.45667Z" fill="#FCF7F7"/>
<path d="M1.7981 2.03747C1.7981 2.25924 1.61831 2.43896 1.3966 2.43896C1.17477 2.43896 0.994979 2.25924 0.994979 2.03747C0.994979 1.8157 1.17477 1.63597 1.3966 1.63597C1.61831 1.63597 1.7981 1.8157 1.7981 2.03747Z" fill="white"/>
<path d="M6.23026 1.31052C6.12159 1.08816 5.83799 0.588906 5.25191 0.269027C4.17305 -0.319697 3.04646 0.232925 2.93509 0.289837C2.93509 0.289837 1.93773 1.68384 1.65222 1.83496C1.3667 1.98608 1.65222 2.18764 2.52556 1.73421C2.49929 1.84168 2.47309 1.94914 2.44682 2.05661C2.90697 2.1047 3.54205 2.12198 4.27902 1.99034C5.12813 1.83874 5.79062 1.54693 6.23026 1.31052Z" fill="#C93D3D"/>
<path d="M2.93456 0.725098C2.70548 0.988785 2.62218 1.20995 2.58986 1.36755C2.57229 1.45313 2.52407 1.74291 2.52503 1.73739C2.49876 1.84485 2.47256 1.95232 2.44629 2.05979C2.862 2.10327 3.42068 2.12114 4.06805 2.02728C2.81756 1.91928 2.93456 0.725098 2.93456 0.725098Z" fill="#A02020"/>
<path d="M3.35725 0.287995C3.35725 0.116901 3.05482 0.563796 3.04589 0.577049C3.01788 0.593301 2.97962 0.617769 2.9362 0.651592C2.96079 0.631862 3.15113 0.473961 3.09398 0.352282C3.03293 0.222328 2.97428 0.620168 2.93356 0.653691C2.93368 0.653571 2.9338 0.653451 2.9338 0.653451C2.9353 0.65447 2.74208 0.908683 2.64655 1.10502C2.58106 1.23966 2.51497 1.44289 2.52403 1.73471C2.55593 1.52577 2.6282 1.2339 2.80277 0.926554C2.88121 0.788443 2.96571 0.672821 3.04553 0.578129C3.0505 0.57627 3.35725 0.460228 3.35725 0.287995Z" fill="#A02020"/>
<path d="M2.6583 3.30863C2.45285 3.30863 2.25069 3.21159 2.12415 3.03036C1.91833 2.73567 1.99036 2.32992 2.28511 2.1241C2.35953 2.07217 4.13434 0.856637 6.44594 1.32158C6.79832 1.39247 7.02645 1.73562 6.95556 2.088C6.88468 2.44032 6.54177 2.66839 6.18915 2.59768C4.41716 2.24104 3.04409 3.18173 3.03036 3.19132C2.91689 3.27054 2.78694 3.30863 2.6583 3.30863Z" fill="white"/>
</svg>
