<svg width="48" height="68" viewBox="0 0 48 68" fill="none" xmlns="http://www.w3.org/2000/svg">
<path fill-rule="evenodd" clip-rule="evenodd" d="M7.28157 33.932C6.63837 33.2936 5.59917 33.2936 4.95597 33.932C4.31277 34.5656 4.31277 35.5952 4.95597 36.2336L23.7456 54.8384C24.3888 55.4768 25.4304 55.4768 26.0712 54.8384L44.8632 36.2336C45.5064 35.5952 45.5064 34.568 44.8632 33.932C44.22 33.2936 43.1808 33.2936 42.5376 33.9296L24.9096 50.8976L7.28157 33.932V33.932Z" fill="white"/>
<mask id="mask0_5_327" style="mask-type:alpha" maskUnits="userSpaceOnUse" x="4" y="33" width="42" height="23">
<path fill-rule="evenodd" clip-rule="evenodd" d="M7.28157 33.932C6.63837 33.2936 5.59917 33.2936 4.95597 33.932C4.31277 34.5656 4.31277 35.5952 4.95597 36.2336L23.7456 54.8384C24.3888 55.4768 25.4304 55.4768 26.0712 54.8384L44.8632 36.2336C45.5064 35.5952 45.5064 34.568 44.8632 33.932C44.22 33.2936 43.1808 33.2936 42.5376 33.9296L24.9096 50.8976L7.28157 33.932Z" fill="white"/>
</mask>
<g mask="url(#mask0_5_327)">
<rect y="20" width="48" height="48" fill="white"/>
</g>
<path fill-rule="evenodd" clip-rule="evenodd" d="M7.28157 13.932C6.63837 13.2936 5.59917 13.2936 4.95597 13.932C4.31277 14.5656 4.31277 15.5952 4.95597 16.2336L23.7456 34.8384C24.3888 35.4768 25.4304 35.4768 26.0712 34.8384L44.8632 16.2336C45.5064 15.5952 45.5064 14.568 44.8632 13.932C44.22 13.2936 43.1808 13.2936 42.5376 13.9296L24.9096 30.8976L7.28157 13.932V13.932Z" fill="white"/>
<mask id="mask1_5_327" style="mask-type:alpha" maskUnits="userSpaceOnUse" x="4" y="13" width="42" height="23">
<path fill-rule="evenodd" clip-rule="evenodd" d="M7.28157 13.932C6.63837 13.2936 5.59917 13.2936 4.95597 13.932C4.31277 14.5656 4.31277 15.5952 4.95597 16.2336L23.7456 34.8384C24.3888 35.4768 25.4304 35.4768 26.0712 34.8384L44.8632 16.2336C45.5064 15.5952 45.5064 14.568 44.8632 13.932C44.22 13.2936 43.1808 13.2936 42.5376 13.9296L24.9096 30.8976L7.28157 13.932V13.932Z" fill="white"/>
</mask>
<g mask="url(#mask1_5_327)">
<rect width="48" height="48" fill="white"/>
</g>
</svg>
